<svg width="323" height="456" xmlns="http://www.w3.org/2000/svg" xmlns:xlink="http://www.w3.org/1999/xlink" overflow="hidden"><defs><clipPath id="clip0"><path d="M313.372 170.412 323.301 165.531 328.708 176.528 318.779 181.409Z" fill-rule="evenodd" clip-rule="evenodd"/></clipPath><clipPath id="clip1"><path d="M313.372 170.412 323.301 165.531 328.708 176.528 318.779 181.409Z" fill-rule="evenodd" clip-rule="evenodd"/></clipPath><clipPath id="clip2"><path d="M313.372 170.412 323.301 165.531 328.708 176.528 318.779 181.409Z" fill-rule="evenodd" clip-rule="evenodd"/></clipPath><clipPath id="clip3"><path d="M498.191 167.604 507.301 171.679 502.364 182.719 493.253 178.645Z" fill-rule="evenodd" clip-rule="evenodd"/></clipPath><clipPath id="clip4"><path d="M498.191 167.604 507.301 171.679 502.364 182.719 493.253 178.645Z" fill-rule="evenodd" clip-rule="evenodd"/></clipPath><clipPath id="clip5"><path d="M498.191 167.604 507.301 171.679 502.364 182.719 493.253 178.645Z" fill-rule="evenodd" clip-rule="evenodd"/></clipPath></defs><g transform="translate(-248 -145)"><path d="M250.543 295C250.543 295 403.327 235.053 570 292.968L570 224.385C570 224.385 425.447 153.769 249 224.385L250.543 295Z" fill="#DA291C" fill-rule="evenodd"/><path d="M275 197.229C275 197.229 295.608 199.3 309.519 176L328.067 188.427C328.067 188.427 318.278 220.011 279.122 218.975L280.152 206.031ZM546 197.229C546 197.229 524.876 199.3 511.481 176L492.933 188.427C492.933 188.427 502.722 220.011 541.878 218.975L540.848 206.031Z" fill="#E8E2D8" fill-rule="evenodd"/><path d="M303 165.924 314.86 193C314.86 193 338.065 178.185 410.258 177.674 482.451 178.185 505.655 193 505.655 193L517 165.924C493.28 155.196 451.511 146 410.258 146 368.489 146 327.236 155.196 303 165.924Z" fill="#DED6C9" fill-rule="evenodd"/><path d="M569.5 226.5 569.5 389.409 563.375 389.409 569.5 388.901C569.5 388.901 569.41 390.623 569.41 393.161 568.899 406.356 567.969 448.279 548.064 492.432 537.856 514.254 523.054 536.585 501.618 555.362 479.671 574.14 451.599 589.872 414.851 597.992L412.028 598.5 410.109 598.5 406.685 597.992C369.936 589.872 341.865 574.14 319.918 555.362 287.763 526.942 270.41 490.909 261.733 459.952 252.546 428.994 251.034 401.715 250.524 391.565 250.524 389.027 252.035 388.901 252.035 388.901L258.16 389.409 250.5 389.076 252.035 226.5 264.795 226.5 264.795 389.916C264.795 390.424 264.886 390.84 264.886 392.363 264.886 404.543 266.326 445.742 285.211 486.849 294.398 507.657 308.179 528.465 328.594 545.72 348.5 563.482 375.04 577.692 409.747 585.812L408.216 588.511 408.216 585.812 413.32 585.812 411.517 587.714 411.789 585.812C446.495 577.692 473.036 563.482 492.941 545.72 523.054 519.33 539.387 485.834 547.553 456.907 556.23 427.471 556.65 401.298 556.65 392.163 556.65 391.148 557.251 390.931 556.74 390.424L556.74 226.5 569.5 226.5Z" stroke="#DA291C" stroke-width="3" stroke-miterlimit="8" fill="#DA291C" fill-rule="evenodd"/><path d="M392.174 155.98C392.896 155.951 393.527 156.043 394.068 156.256 394.609 156.468 395.026 156.749 395.319 157.099 395.612 157.448 395.766 157.8 395.78 158.155 395.791 158.433 395.721 158.671 395.571 158.867 395.42 159.063 395.212 159.166 394.946 159.177 394.858 159.181 394.762 159.166 394.659 159.132 394.631 159.057 394.553 158.787 394.427 158.323 394.301 157.859 394.079 157.472 393.762 157.162 393.445 156.851 393.047 156.706 392.566 156.725 391.92 156.751 391.339 157.037 390.822 157.584 390.306 158.131 389.911 158.8 389.639 159.591 389.366 160.381 389.244 161.137 389.273 161.859 389.296 162.428 389.422 162.883 389.652 163.222 389.881 163.561 390.217 163.722 390.66 163.704 390.938 163.693 391.214 163.609 391.486 163.452 391.759 163.296 392.098 163.063 392.504 162.755 392.984 162.394 393.395 162.12 393.736 161.936 394.077 161.751 394.45 161.65 394.855 161.634 395.5 161.608 396.032 161.824 396.45 162.283 396.868 162.741 397.091 163.331 397.12 164.053 397.149 164.761 396.982 165.5 396.62 166.269 396.258 167.038 395.733 167.687 395.044 168.215 394.355 168.744 393.562 169.026 392.663 169.062 392.068 169.086 391.561 169.014 391.143 168.848 390.724 168.681 390.408 168.459 390.194 168.182 389.98 167.906 389.867 167.622 389.855 167.331 389.844 167.065 389.918 166.856 390.077 166.704 390.236 166.551 390.448 166.47 390.714 166.459 390.853 166.454 390.987 166.48 391.116 166.538 391.094 166.615 391.087 166.755 391.095 166.957 391.11 167.324 391.205 167.647 391.381 167.925 391.557 168.203 391.854 168.334 392.272 168.317 392.791 168.296 393.277 168.014 393.73 167.469 394.184 166.925 394.538 166.28 394.793 165.534 395.049 164.789 395.165 164.138 395.143 163.581 395.13 163.264 395.063 163.017 394.941 162.838 394.82 162.659 394.652 162.574 394.437 162.582 394.272 162.589 394.097 162.65 393.912 162.765 393.726 162.88 393.48 163.058 393.173 163.299 392.607 163.727 392.107 164.055 391.672 164.282 391.237 164.508 390.723 164.633 390.128 164.657 389.457 164.684 388.884 164.549 388.41 164.251 387.935 163.953 387.57 163.55 387.315 163.04 387.06 162.531 386.921 161.985 386.897 161.403 386.863 160.542 387.051 159.701 387.461 158.88 387.872 158.058 388.485 157.381 389.3 156.847 390.115 156.313 391.073 156.024 392.174 155.98Z" fill-rule="evenodd"/><text fill="#000000" fill-opacity="0" font-family="Arial,Arial_MSFontService,sans-serif" font-size="13.0917" x="386.893" y="167.43">S</text><path d="M399.897 156.273C400.15 156.268 400.37 156.301 400.555 156.374 400.74 156.446 400.853 156.545 400.894 156.671 400.851 157.052 400.805 157.585 400.756 158.27L402.447 158.234C402.586 158.231 402.701 158.264 402.791 158.332 402.881 158.4 402.927 158.484 402.929 158.585 402.931 158.687 402.876 158.783 402.764 158.874 402.652 158.965 402.495 159.013 402.292 159.017L400.696 159.05C400.604 160.699 400.573 162.226 400.602 163.632 400.656 166.178 401.024 167.443 401.708 167.429 402.126 167.42 402.535 167.003 402.936 166.177 403.337 165.352 403.651 164.31 403.878 163.051 403.927 162.961 403.995 162.915 404.084 162.913 404.185 162.911 404.278 162.96 404.363 163.059 404.447 163.159 404.485 163.291 404.475 163.456 404.247 164.639 403.988 165.579 403.698 166.275 403.409 166.972 403.061 167.477 402.656 167.789 402.251 168.102 401.763 168.264 401.194 168.276 400.586 168.289 400.082 168.15 399.684 167.861 399.285 167.571 398.991 167.156 398.802 166.615 398.544 165.785 398.401 164.685 398.372 163.318 398.343 161.925 398.377 160.518 398.474 159.097L397.182 159.124C397.018 159.127 396.89 159.095 396.8 159.027 396.71 158.959 396.664 158.881 396.662 158.793 396.66 158.679 396.721 158.576 396.846 158.485 396.97 158.393 397.122 158.346 397.299 158.342L398.534 158.316C398.631 157.503 398.709 157.014 398.769 156.848 398.841 156.657 398.98 156.514 399.188 156.421 399.395 156.328 399.631 156.279 399.897 156.273Z" fill-rule="evenodd"/><text fill="#000000" fill-opacity="0" font-family="Arial,Arial_MSFontService,sans-serif" font-size="12.0039" x="396.662" y="166.776">t</text><path d="M407.184 161.15C406.639 161.152 406.216 161.476 405.914 162.124 405.613 162.771 405.463 163.518 405.466 164.367 405.469 165.152 405.608 165.833 405.882 166.408 406.157 166.984 406.503 167.27 406.921 167.269 407.364 167.267 407.727 166.978 408.01 166.401 408.293 165.823 408.5 165.161 408.63 164.413 408.76 163.665 408.837 163.006 408.861 162.436 408.351 161.577 407.792 161.148 407.184 161.15ZM410.143 159.885C410.409 159.884 410.647 159.922 410.856 159.997 411.066 160.072 411.202 160.179 411.266 160.318 411.107 162.016 411.03 163.321 411.033 164.233 411.04 166.336 411.348 167.386 411.956 167.384 412.336 167.383 412.721 166.982 413.111 166.183 413.501 165.383 413.826 164.325 414.088 163.006 414.113 162.943 414.176 162.911 414.277 162.911 414.379 162.91 414.471 162.958 414.553 163.052 414.636 163.147 414.678 163.27 414.678 163.422 414.355 165.095 413.932 166.313 413.409 167.075 412.886 167.837 412.263 168.219 411.541 168.221 410.857 168.224 410.312 167.957 409.904 167.42 409.497 166.883 409.21 166.184 409.042 165.323 408.893 166.122 408.623 166.778 408.232 167.293 407.841 167.807 407.285 168.066 406.563 168.068 406.005 168.07 405.47 167.92 404.956 167.618 404.441 167.316 404.028 166.887 403.716 166.33 403.404 165.774 403.246 165.148 403.244 164.451 403.241 163.83 403.366 163.206 403.617 162.578 403.868 161.95 404.262 161.426 404.799 161.006 405.336 160.587 406.003 160.375 406.801 160.372 407.688 160.369 408.398 160.715 408.933 161.41 408.994 160.89 409.05 160.554 409.1 160.402 409.176 160.225 409.308 160.094 409.498 160.011 409.688 159.928 409.903 159.886 410.143 159.885ZM408.993 156.85C409.271 156.849 409.496 156.93 409.668 157.094 409.84 157.258 409.926 157.467 409.927 157.72 409.928 157.974 409.846 158.195 409.682 158.386 409.518 158.577 409.284 158.672 408.98 158.674 408.701 158.675 408.492 158.574 408.352 158.372 408.212 158.17 408.142 157.948 408.141 157.708 408.14 157.454 408.221 157.248 408.385 157.089 408.55 156.93 408.752 156.85 408.993 156.85ZM406.048 156.86C406.314 156.859 406.536 156.96 406.714 157.162 406.892 157.364 406.981 157.585 406.982 157.826 406.983 158.079 406.908 158.285 406.756 158.444 406.605 158.603 406.371 158.683 406.054 158.684 405.763 158.685 405.547 158.616 405.407 158.477 405.268 158.338 405.197 158.161 405.197 157.946 405.196 157.68 405.28 157.433 405.45 157.204 405.621 156.976 405.82 156.861 406.048 156.86Z" fill-rule="evenodd"/><text fill="#000000" fill-opacity="0" font-family="Arial,Arial_MSFontService,sans-serif" font-size="11.372" x="403.244" y="166.8">ä</text><path d="M415.542 167.129C415.649 168.562 415.822 169.726 416.063 170.623 416.304 171.519 416.589 171.97 416.918 171.974 417.159 171.978 417.358 171.756 417.517 171.308 417.675 170.861 417.759 170.314 417.768 169.668 417.779 168.845 417.67 168.064 417.439 167.326 417.172 167.399 416.906 167.433 416.64 167.429 416.222 167.423 415.856 167.323 415.542 167.129ZM415.438 165.037 415.481 166.083C415.753 166.517 416.168 166.738 416.726 166.746 416.89 166.748 417.055 166.732 417.22 166.696 416.778 165.727 416.184 165.174 415.438 165.037ZM414.915 157.638C415.143 157.641 415.349 157.679 415.531 157.751 415.714 157.823 415.811 157.916 415.822 158.031 415.586 159.471 415.454 161.192 415.426 163.194 415.419 163.726 415.42 164.125 415.428 164.391 415.859 164.422 416.309 164.609 416.779 164.951 417.249 165.294 417.645 165.777 417.965 166.403 418.451 166.118 418.875 165.684 419.238 165.1 419.601 164.516 419.851 163.857 419.988 163.125 420.027 163.062 420.084 163.031 420.16 163.032 420.261 163.033 420.356 163.085 420.443 163.188 420.53 163.291 420.573 163.412 420.571 163.551 420.381 164.422 420.08 165.15 419.666 165.733 419.253 166.316 418.778 166.75 418.242 167.033 418.522 167.81 418.656 168.68 418.642 169.642 418.63 170.478 418.474 171.211 418.174 171.84 417.874 172.469 417.325 172.778 416.527 172.767 415.298 172.75 414.427 171.854 413.914 170.08 413.4 168.305 413.161 166.196 413.195 163.751 413.214 162.434 413.291 161.229 413.427 160.135 413.562 159.041 413.714 158.356 413.883 158.079 413.974 157.929 414.115 157.817 414.306 157.743 414.497 157.67 414.7 157.635 414.915 157.638Z" fill-rule="evenodd"/><text fill="#000000" fill-opacity="0" font-family="Arial,Arial_MSFontService,sans-serif" font-size="15.1296" x="413.192" y="170.876">f</text><path d="M423.304 161.35C422.76 161.332 422.325 161.641 422 162.276 421.675 162.912 421.498 163.654 421.47 164.502 421.444 165.287 421.558 165.972 421.811 166.557 422.064 167.142 422.399 167.441 422.817 167.455 423.26 167.47 423.634 167.194 423.938 166.627 424.241 166.06 424.472 165.406 424.63 164.663 424.787 163.921 424.888 163.265 424.932 162.696 424.455 161.819 423.912 161.37 423.304 161.35ZM426.308 160.194C426.574 160.203 426.81 160.249 427.016 160.332 427.223 160.415 427.355 160.527 427.414 160.668 427.193 162.359 427.068 163.66 427.038 164.572 426.968 166.673 427.237 167.734 427.845 167.754 428.225 167.767 428.624 167.381 429.043 166.596 429.462 165.812 429.826 164.766 430.135 163.458 430.163 163.395 430.227 163.366 430.328 163.369 430.43 163.372 430.52 163.423 430.599 163.521 430.678 163.618 430.715 163.743 430.71 163.895 430.326 165.555 429.858 166.756 429.308 167.499 428.757 168.241 428.121 168.6 427.399 168.576 426.716 168.553 426.18 168.266 425.793 167.715 425.406 167.164 425.144 166.455 425.008 165.588 424.83 166.381 424.536 167.027 424.126 167.527 423.717 168.027 423.151 168.264 422.43 168.241 421.873 168.222 421.343 168.053 420.84 167.732 420.338 167.411 419.94 166.967 419.649 166.4 419.357 165.832 419.223 165.201 419.246 164.504 419.266 163.884 419.413 163.265 419.687 162.646 419.961 162.028 420.374 161.519 420.926 161.119 421.478 160.719 422.153 160.532 422.95 160.559 423.836 160.588 424.534 160.96 425.042 161.673 425.123 161.156 425.191 160.823 425.247 160.673 425.328 160.498 425.466 160.372 425.658 160.296 425.851 160.22 426.067 160.186 426.308 160.194Z" fill-rule="evenodd"/><text fill="#000000" fill-opacity="0" font-family="Arial,Arial_MSFontService,sans-serif" font-size="8.38391" x="419.243" y="167.529">a</text><g clip-path="url(#clip0)"><g clip-path="url(#clip1)"><g clip-path="url(#clip2)"><path d="M318.353 168.005C319.997 167.196 321.778 166.668 323.688 166.402 325.58 170.248 327.617 174.309 323.727 178.936 317.688 179.19 315.717 175.098 313.826 171.251 315.203 169.9 316.709 168.813 318.353 168.005Z" fill="#FF0000"/><path d="M317.005 173.566 319.306 172.435 318.175 170.133 320.147 169.163 321.279 171.465 323.58 170.333 324.55 172.306 322.249 173.437 323.38 175.739 321.408 176.708 320.276 174.407 317.975 175.539Z" fill="#FFFFFF"/></g></g></g><path d="M351.235 211.757C352.342 211.736 353.299 211.939 354.107 212.363 354.915 212.788 355.559 213.422 356.041 214.266 356.522 215.11 356.814 216.142 356.915 217.362L354.121 217.413C354.013 216.369 353.707 215.584 353.2 215.057 352.694 214.53 352.054 214.273 351.281 214.288 350.35 214.305 349.619 214.632 349.09 215.27 348.561 215.909 348.307 216.768 348.327 217.849L348.47 225.679C348.488 226.654 348.779 227.42 349.343 227.977 349.907 228.534 350.668 228.803 351.626 228.786 352.549 228.769 353.277 228.452 353.811 227.836 354.344 227.219 354.601 226.362 354.581 225.264L354.543 223.207 351.525 223.263 351.479 220.798 357.134 220.694 357.216 225.176C357.239 226.415 357.028 227.491 356.583 228.405 356.139 229.318 355.501 230.027 354.671 230.53 353.841 231.033 352.841 231.295 351.672 231.316 350.495 231.338 349.471 231.126 348.602 230.68 347.732 230.235 347.059 229.59 346.582 228.746 346.105 227.902 345.855 226.896 345.834 225.727L345.69 217.897C345.668 216.65 345.876 215.571 346.317 214.662 346.757 213.753 347.397 213.047 348.236 212.543 349.075 212.04 350.075 211.778 351.235 211.757Z" fill="#FFFFFF" fill-rule="evenodd"/><text fill="#000000" fill-opacity="0" font-family="Arial,Arial_MSFontService,sans-serif" font-size="19.5626" x="345.689" y="228.873">G</text><path d="M363.035 214.219 363.111 220.362 366.723 220.318C367.453 220.308 368.028 220.071 368.448 219.604 368.869 219.137 369.074 218.513 369.064 217.731L369.052 216.755C369.042 215.955 368.821 215.323 368.389 214.858 367.957 214.393 367.376 214.165 366.647 214.174ZM360.407 211.786 361.581 211.772 363.004 211.754 366.458 211.711C367.53 211.698 368.458 211.886 369.241 212.277 370.023 212.667 370.63 213.228 371.061 213.961 371.492 214.694 371.714 215.571 371.727 216.59L371.741 217.71C371.754 218.739 371.554 219.629 371.141 220.381 370.729 221.133 370.136 221.719 369.363 222.137L368.823 222.339 372.576 230.819 369.61 230.856 366.217 222.789 363.142 222.828 363.243 230.935 360.646 230.967Z" fill="#FFFFFF" fill-rule="evenodd"/><text fill="#000000" fill-opacity="0" font-family="Arial,Arial_MSFontService,sans-serif" font-size="19.2565" x="360.407" y="228.56">R</text><path d="M380.71 215.392 378.456 224.112 383.101 224.075ZM379.533 211.592 381.826 211.573 387.726 230.696 384.931 230.718 383.779 226.535 377.817 226.582 376.731 230.783 373.936 230.805Z" fill="#FFFFFF" fill-rule="evenodd"/><text fill="#000000" fill-opacity="0" font-family="Arial,Arial_MSFontService,sans-serif" font-size="19.2319" x="373.936" y="228.401">A</text><path d="M389.752 211.518 392.072 211.509 399.075 225.515 399.02 211.482 401.538 211.472 401.613 230.628 399.279 230.637 392.305 216.971 392.358 230.664 389.827 230.674Z" fill="#FFFFFF" fill-rule="evenodd"/><text fill="#000000" fill-opacity="0" font-family="Arial,Arial_MSFontService,sans-serif" font-size="19.2016" x="389.752" y="228.273">N</text><path d="M407.762 213.931 407.764 228.169 410.797 228.168C411.728 228.168 412.451 227.915 412.965 227.41 413.479 226.905 413.736 226.195 413.736 225.281L413.735 216.817C413.735 215.903 413.477 215.193 412.963 214.688 412.449 214.183 411.726 213.93 410.794 213.93ZM405.164 211.466 406.878 211.466 407.762 211.465 410.715 211.465C412.516 211.465 413.907 211.937 414.888 212.881 415.868 213.826 416.358 215.164 416.358 216.896L416.36 225.188C416.36 226.339 416.138 227.322 415.694 228.135 415.251 228.948 414.607 229.567 413.763 229.994 412.92 230.42 411.9 230.634 410.705 230.634L407.765 230.634 406.882 230.634 405.168 230.635Z" fill="#FFFFFF" fill-rule="evenodd"/><text fill="#000000" fill-opacity="0" font-family="Arial,Arial_MSFontService,sans-serif" font-size="19.1699" x="405.164" y="228.239">D</text><path d="M424.125 211.481 435.542 211.534 435.531 213.999 431.127 213.979 431.05 230.682 428.453 230.67 428.53 213.967 424.114 213.946Z" fill="#FFFFFF" fill-rule="evenodd"/><text fill="#000000" fill-opacity="0" font-family="Arial,Arial_MSFontService,sans-serif" font-size="19.2011" x="424.114" y="228.282">T</text><path d="M442.65 213.935C441.692 213.928 440.932 214.218 440.369 214.807 439.806 215.396 439.521 216.2 439.512 217.219L439.449 225.076C439.441 226.087 439.713 226.894 440.267 227.496 440.82 228.098 441.576 228.403 442.534 228.411 443.492 228.418 444.254 228.126 444.822 227.532 445.389 226.939 445.677 226.137 445.685 225.127L445.748 217.27C445.756 216.25 445.482 215.441 444.924 214.844 444.366 214.246 443.608 213.943 442.65 213.935ZM442.671 211.391C443.857 211.401 444.877 211.648 445.73 212.134 446.583 212.62 447.239 213.309 447.698 214.2 448.156 215.092 448.381 216.148 448.371 217.37L448.309 225.056C448.299 226.277 448.058 227.33 447.585 228.214 447.112 229.098 446.445 229.778 445.584 230.255 444.723 230.731 443.7 230.964 442.513 230.955 441.335 230.945 440.318 230.695 439.46 230.205 438.603 229.715 437.945 229.024 437.486 228.133 437.028 227.241 436.803 226.185 436.813 224.963L436.875 217.277C436.885 216.056 437.126 215.003 437.599 214.119 438.072 213.235 438.741 212.557 439.607 212.085 440.472 211.613 441.493 211.382 442.671 211.391Z" fill="#FFFFFF" fill-rule="evenodd"/><text fill="#000000" fill-opacity="0" font-family="Arial,Arial_MSFontService,sans-serif" font-size="19.5644" x="436.813" y="228.51">O</text><path d="M451.535 211.667 454.132 211.7 453.961 225.343C453.949 226.354 454.196 227.14 454.703 227.7 455.21 228.26 455.93 228.546 456.861 228.557 457.81 228.569 458.545 228.302 459.066 227.754 459.588 227.207 459.854 226.428 459.867 225.418L460.038 211.774 462.635 211.806 462.465 225.345C462.442 227.208 461.943 228.639 460.968 229.637 459.993 230.636 458.613 231.124 456.829 231.102 455.063 231.079 453.705 230.557 452.755 229.534 451.805 228.512 451.342 227.069 451.366 225.205Z" fill="#FFFFFF" fill-rule="evenodd"/><text fill="#000000" fill-opacity="0" font-family="Arial,Arial_MSFontService,sans-serif" font-size="19.4354" x="451.365" y="228.673">U</text><path d="M468.602 214.357 468.489 220.499 472.1 220.566C472.83 220.58 473.412 220.36 473.847 219.906 474.281 219.453 474.506 218.835 474.52 218.053L474.538 217.077C474.553 216.278 474.352 215.639 473.934 215.161 473.517 214.683 472.943 214.437 472.214 214.424ZM466.051 211.844 467.224 211.866 468.648 211.892 472.101 211.956C473.173 211.976 474.094 212.193 474.865 212.607 475.635 213.021 476.224 213.601 476.632 214.347 477.041 215.093 477.235 215.975 477.217 216.995L477.196 218.115C477.177 219.143 476.95 220.027 476.514 220.766 476.078 221.505 475.468 222.072 474.683 222.466L474.137 222.652 477.626 231.243 474.66 231.188 471.518 223.021 468.443 222.964 468.294 231.071 465.697 231.023Z" fill="#FFFFFF" fill-rule="evenodd"/><text fill="#000000" fill-opacity="0" font-family="Arial,Arial_MSFontService,sans-serif" font-size="19.399" x="465.697" y="228.818">R</text><path d="M374.91 246.18C374.529 246.183 374.232 246.304 374.02 246.543 373.807 246.782 373.703 247.119 373.707 247.553L373.729 249.868C373.733 250.307 373.844 250.645 374.061 250.883 374.278 251.12 374.577 251.237 374.958 251.233 375.344 251.229 375.642 251.107 375.852 250.866 376.062 250.624 376.165 250.284 376.161 249.845L376.139 247.53C376.135 247.096 376.025 246.761 375.811 246.526 375.596 246.291 375.296 246.176 374.91 246.18ZM374.904 244.788C375.749 244.78 376.404 245.01 376.87 245.48 377.336 245.949 377.573 246.618 377.581 247.487L377.604 249.86C377.612 250.729 377.388 251.405 376.931 251.888 376.474 252.371 375.823 252.616 374.979 252.624 374.134 252.633 373.476 252.397 373.005 251.918 372.534 251.439 372.295 250.763 372.286 249.889L372.264 247.538C372.256 246.669 372.483 245.995 372.944 245.517 373.406 245.039 374.059 244.796 374.904 244.788Z" fill="#FFFFFF" fill-rule="evenodd"/><text fill="#000000" fill-opacity="0" font-family="Arial,Arial_MSFontService,sans-serif" font-size="7.83696" x="372.264" y="251.645">o</text><path d="M381.33 241.81 382.311 241.803 382.322 243.172 381.377 243.18C381.211 243.181 381.088 243.243 381.009 243.366 380.929 243.488 380.89 243.64 380.891 243.821L380.9 244.861 382.335 244.849 382.345 246.146 380.91 246.157 380.96 252.463 379.517 252.474 379.467 246.169 378.691 246.175 378.68 244.878 379.457 244.872 379.449 243.839C379.443 243.171 379.596 242.666 379.905 242.327 380.215 241.988 380.69 241.815 381.33 241.81Z" fill="#FFFFFF" fill-rule="evenodd"/><text fill="#000000" fill-opacity="0" font-family="Arial,Arial_MSFontService,sans-serif" font-size="10.6718" x="378.68" y="251.141">f</text><path d="M390.054 241.645C390.796 241.641 391.419 241.823 391.921 242.191 392.424 242.56 392.767 243.09 392.951 243.783L391.614 244.405C391.485 243.956 391.285 243.613 391.015 243.375 390.746 243.138 390.428 243.02 390.061 243.022 389.505 243.025 389.076 243.148 388.774 243.391 388.473 243.634 388.323 243.981 388.326 244.43L388.328 244.767C388.329 245.123 388.429 245.401 388.625 245.6 388.821 245.799 389.077 245.954 389.393 246.065 389.708 246.175 390.045 246.283 390.402 246.389 390.724 246.48 391.045 246.583 391.363 246.699 391.681 246.814 391.972 246.97 392.237 247.167 392.502 247.363 392.714 247.623 392.875 247.947 393.035 248.271 393.117 248.691 393.119 249.209L393.122 249.7C393.127 250.593 392.85 251.284 392.291 251.773 391.732 252.262 390.937 252.509 389.907 252.515 389.341 252.518 388.836 252.434 388.393 252.263 387.95 252.092 387.583 251.839 387.29 251.503 386.998 251.168 386.79 250.761 386.665 250.283L388.046 249.683C388.176 250.151 388.401 250.511 388.722 250.763 389.043 251.015 389.436 251.14 389.9 251.138 390.476 251.135 390.918 251.008 391.227 250.757 391.536 250.506 391.689 250.157 391.686 249.707L391.684 249.231C391.682 248.889 391.592 248.62 391.412 248.423 391.233 248.227 390.998 248.07 390.707 247.955 390.415 247.839 390.099 247.736 389.756 247.645 389.429 247.554 389.096 247.451 388.759 247.335 388.421 247.22 388.113 247.064 387.833 246.868 387.554 246.671 387.328 246.405 387.155 246.069 386.983 245.733 386.895 245.299 386.892 244.767L386.89 244.452C386.886 243.559 387.158 242.869 387.707 242.382 388.256 241.896 389.038 241.65 390.054 241.645Z" fill="#FFFFFF" fill-rule="evenodd"/><text fill="#000000" fill-opacity="0" font-family="Arial,Arial_MSFontService,sans-serif" font-size="10.8702" x="386.665" y="251.156">S</text><path d="M394.107 244.78 395.564 244.775 396.731 250.294 398.216 244.767 399.226 244.764 400.745 250.282 401.871 244.756 403.328 244.751 401.308 252.36 400.195 252.363 398.728 247.117 397.294 252.372 396.181 252.376Z" fill="#FFFFFF" fill-rule="evenodd"/><text fill="#000000" fill-opacity="0" font-family="Arial,Arial_MSFontService,sans-serif" font-size="7.62459" x="394.107" y="251.423">w</text><path d="M404.502 244.752 405.945 244.75 405.956 252.352 404.513 252.354ZM404.498 241.749 405.941 241.747 405.943 243.19 404.5 243.199Z" fill="#FFFFFF" fill-rule="evenodd"/><text fill="#000000" fill-opacity="0" font-family="Arial,Arial_MSFontService,sans-serif" font-size="10.6075" x="404.498" y="251.029">i</text><path d="M408.051 242.536 409.493 242.535 409.495 244.747 410.622 244.747 410.623 246.08 409.495 246.08 409.497 250.379C409.497 250.58 409.539 250.736 409.622 250.848 409.705 250.96 409.827 251.016 409.988 251.016L410.625 251.016 410.626 252.386 409.835 252.386C409.21 252.386 408.757 252.213 408.476 251.867 408.195 251.52 408.055 251.022 408.054 250.373L408.052 246.081 407.269 246.081 407.268 244.748 408.052 244.748Z" fill="#FFFFFF" fill-rule="evenodd"/><text fill="#000000" fill-opacity="0" font-family="Arial,Arial_MSFontService,sans-serif" font-size="9.85092" x="407.268" y="251.155">t</text><path d="M412.085 244.746 416.75 244.75 416.749 245.973 413.654 250.995 416.943 250.998 416.942 252.353 411.976 252.349 411.977 251.089 415.174 246.097 412.084 246.101Z" fill="#FFFFFF" fill-rule="evenodd"/><text fill="#000000" fill-opacity="0" font-family="Arial,Arial_MSFontService,sans-serif" font-size="7.60649" x="411.976" y="251.402">z</text><path d="M420.935 245.946C420.505 245.945 420.172 246.093 419.934 246.39 419.697 246.687 419.577 247.114 419.576 247.671L419.575 247.949 422.19 247.955 422.191 247.545C422.192 247.037 422.08 246.644 421.853 246.365 421.627 246.086 421.321 245.946 420.935 245.946ZM420.938 244.642C421.773 244.644 422.422 244.927 422.884 245.493 423.347 246.058 423.577 246.855 423.574 247.886L423.579 249.138 419.572 249.128 419.571 249.538C419.57 250.036 419.697 250.421 419.953 250.693 420.209 250.965 420.564 251.103 421.018 251.109 421.316 251.11 421.561 251.042 421.754 250.906 421.948 250.77 422.084 250.57 422.162 250.306L422.162 250.314 423.487 250.742 423.48 250.742C423.337 251.313 423.056 251.744 422.638 252.036 422.22 252.328 421.679 252.473 421.014 252.472 420.121 252.469 419.428 252.21 418.936 251.694 418.444 251.178 418.197 250.446 418.195 249.498L418.199 247.748C418.206 246.752 418.447 245.985 418.922 245.446 419.397 244.908 420.069 244.64 420.938 244.642Z" fill="#FFFFFF" fill-rule="evenodd"/><text fill="#000000" fill-opacity="0" font-family="Arial,Arial_MSFontService,sans-serif" font-size="7.82983" x="418.195" y="251.493">e</text><path d="M428.721 244.661C428.897 244.662 429.055 244.688 429.194 244.74 429.332 244.792 429.455 244.867 429.562 244.965L429.066 246.318C428.984 246.234 428.883 246.172 428.763 246.13 428.644 246.088 428.503 246.066 428.342 246.066 427.82 246.064 427.413 246.197 427.121 246.467 426.83 246.737 426.68 247.106 426.674 247.575L426.654 252.38 425.212 252.374 425.242 244.772 426.685 244.777 426.68 245.927 427.46 245.04C427.842 244.786 428.262 244.659 428.721 244.661Z" fill="#FFFFFF" fill-rule="evenodd"/><text fill="#000000" fill-opacity="0" font-family="Arial,Arial_MSFontService,sans-serif" font-size="7.71887" x="425.212" y="251.415">r</text><path d="M430.773 241.748 432.216 241.756 432.171 250.413C432.17 250.613 432.213 250.77 432.301 250.883 432.388 250.995 432.514 251.052 432.681 251.053L433.237 251.056 433.23 252.425 432.498 252.422C431.936 252.419 431.5 252.241 431.189 251.887 430.879 251.534 430.725 251.038 430.728 250.398Z" fill="#FFFFFF" fill-rule="evenodd"/><text fill="#000000" fill-opacity="0" font-family="Arial,Arial_MSFontService,sans-serif" font-size="10.677" x="430.728" y="251.091">l</text><path d="M436.808 249.122C436.447 249.12 436.174 249.216 435.989 249.41 435.805 249.604 435.712 249.899 435.709 250.294 435.707 250.636 435.806 250.891 436.008 251.058 436.209 251.225 436.515 251.31 436.925 251.313 437.379 251.316 437.721 251.239 437.949 251.082 438.177 250.925 438.292 250.685 438.294 250.363L438.302 249.132ZM437.101 244.708C437.931 244.713 438.574 244.936 439.03 245.376 439.486 245.816 439.712 246.434 439.706 247.23L439.672 252.452 438.28 252.443 438.286 251.585 438.104 251.976C437.949 252.168 437.751 252.311 437.511 252.405 437.272 252.498 436.988 252.544 436.661 252.542 435.885 252.537 435.302 252.347 434.914 251.974 434.526 251.6 434.334 251.037 434.339 250.285 434.345 249.48 434.554 248.879 434.967 248.484 435.379 248.089 435.993 247.894 436.809 247.899L438.31 247.909 438.315 247.25C438.317 246.85 438.212 246.538 437.999 246.314 437.785 246.09 437.483 245.977 437.093 245.975 436.819 245.973 436.572 246.036 436.352 246.164 436.131 246.292 435.964 246.475 435.85 246.714L434.629 246.332C434.774 245.81 435.063 245.408 435.494 245.125 435.926 244.843 436.461 244.703 437.101 244.708Z" fill="#FFFFFF" fill-rule="evenodd"/><text fill="#000000" fill-opacity="0" font-family="Arial,Arial_MSFontService,sans-serif" font-size="7.83434" x="434.339" y="251.563">a</text><path d="M444.613 244.765C445.291 244.771 445.813 244.999 446.178 245.449 446.543 245.899 446.722 246.536 446.714 247.361L446.67 252.51 445.228 252.498 445.27 247.554C445.274 247.09 445.169 246.737 444.957 246.493 444.744 246.25 444.432 246.126 444.022 246.123 443.622 246.119 443.316 246.231 443.104 246.459 442.892 246.687 442.784 247.018 442.78 247.452L442.738 252.477 441.295 252.464 441.36 244.862 442.802 244.874 442.793 245.977 443.467 245.114C443.811 244.878 444.193 244.762 444.613 244.765Z" fill="#FFFFFF" fill-rule="evenodd"/><text fill="#000000" fill-opacity="0" font-family="Arial,Arial_MSFontService,sans-serif" font-size="7.745" x="441.295" y="251.542">n</text><path d="M450.901 246.145C450.515 246.141 450.214 246.264 449.996 246.516 449.779 246.768 449.668 247.123 449.663 247.582L449.637 249.962C449.633 250.401 449.736 250.742 449.949 250.983 450.161 251.225 450.46 251.348 450.846 251.352 451.1 251.355 451.316 251.304 451.496 251.201 451.675 251.098 451.812 250.948 451.907 250.752 452.002 250.555 452.051 250.317 452.054 250.039L452.081 247.49C452.084 247.207 452.04 246.966 451.949 246.767 451.859 246.569 451.725 246.416 451.548 246.309 451.371 246.202 451.155 246.147 450.901 246.145ZM452.14 241.917 453.583 241.932 453.47 252.581 452.027 252.566 452.038 251.519 451.469 252.314C451.161 252.563 450.778 252.684 450.319 252.679 449.635 252.672 449.108 252.432 448.737 251.959 448.366 251.487 448.185 250.825 448.194 249.976L448.22 247.515C448.23 246.646 448.422 245.977 448.798 245.507 449.175 245.037 449.697 244.806 450.366 244.813 450.766 244.817 451.13 244.939 451.457 245.176L452.097 245.982Z" fill="#FFFFFF" fill-rule="evenodd"/><text fill="#000000" fill-opacity="0" font-family="Arial,Arial_MSFontService,sans-serif" font-size="10.7626" x="448.194" y="251.334">d</text><g clip-path="url(#clip3)"><g clip-path="url(#clip4)"><g clip-path="url(#clip5)"><path d="M502.723 169.687 507.246 171.71 504.273 178.357C503.204 180.746 500.315 181.778 497.819 180.661 495.323 179.545 494.165 176.704 495.234 174.315L498.206 167.667 502.723 169.687 502.723 169.687Z" fill="#FFFFFF"/><path d="M495.234 174.314C494.165 176.703 495.323 179.545 497.819 180.661 499.488 181.408 501.386 181.156 502.744 180.218L498.21 167.66 495.234 174.314Z" fill="#248BCC"/><path d="M502.728 169.674 507.25 171.697 504.277 178.344C503.209 180.733 500.32 181.764 497.824 180.648 495.328 179.532 494.17 176.69 495.238 174.302L498.211 167.655 502.728 169.674Z" stroke="#000000" stroke-width="0.0748556" fill="none"/></g></g></g></g></svg>