<svg width="1107" height="1561" xmlns="http://www.w3.org/2000/svg" xmlns:xlink="http://www.w3.org/1999/xlink" xml:space="preserve" overflow="hidden"><defs><clipPath id="clip0"><rect x="854" y="501" width="1107" height="1561"/></clipPath><clipPath id="clip1"><path d="M1077.22 585.793 1111.35 569.012 1129.93 606.815 1095.8 623.595Z" fill-rule="evenodd" clip-rule="evenodd"/></clipPath><clipPath id="clip2"><path d="M1077.22 585.793 1111.35 569.012 1129.93 606.815 1095.8 623.595Z" fill-rule="evenodd" clip-rule="evenodd"/></clipPath><clipPath id="clip3"><path d="M1077.22 585.793 1111.35 569.012 1129.93 606.815 1095.8 623.595Z" fill-rule="evenodd" clip-rule="evenodd"/></clipPath><clipPath id="clip4"><path d="M1712.52 576.137 1743.86 590.149 1726.88 628.101 1695.55 614.089Z" fill-rule="evenodd" clip-rule="evenodd"/></clipPath><clipPath id="clip5"><path d="M1712.52 576.137 1743.86 590.149 1726.88 628.101 1695.55 614.089Z" fill-rule="evenodd" clip-rule="evenodd"/></clipPath><clipPath id="clip6"><path d="M1712.52 576.137 1743.86 590.149 1726.88 628.101 1695.55 614.089Z" fill-rule="evenodd" clip-rule="evenodd"/></clipPath></defs><g clip-path="url(#clip0)" transform="translate(-854 -501)"><path d="M860.312 1014C860.312 1014 1386.25 807.712 1960 1007.01L1960 771C1960 771 1462.4 528 855 771L860.312 1014Z" fill="#DA291C" fill-rule="evenodd"/><path d="M945 677.585C945 677.585 1015.87 684.569 1063.71 606L1127.5 647.904C1127.5 647.904 1093.84 754.408 959.175 750.916L962.719 707.267ZM1877 677.585C1877 677.585 1804.35 684.569 1758.28 606L1694.5 647.904C1694.5 647.904 1728.16 754.408 1862.82 750.916L1859.28 707.267Z" fill="#E8E2D8" fill-rule="evenodd"/><path d="M1042 569.25 1082.79 662C1082.79 662 1162.6 611.25 1410.89 609.5 1659.18 611.25 1738.98 662 1738.98 662L1778 569.25C1696.42 532.5 1552.77 501 1410.89 501 1267.23 501 1125.35 532.5 1042 569.25Z" fill="#DED6C9" fill-rule="evenodd"/><path d="M1955 775 1955 1336.42 1933.98 1336.42 1955 1334.67C1955 1334.67 1954.69 1340.61 1954.69 1349.35 1952.94 1394.83 1949.74 1539.3 1881.42 1691.46 1846.38 1766.67 1795.57 1843.62 1721.99 1908.34 1646.65 1973.05 1550.29 2027.27 1424.15 2055.25L1414.46 2057 1407.87 2057 1396.12 2055.25C1269.98 2027.27 1173.62 1973.05 1098.28 1908.34 987.909 1810.39 928.342 1686.22 898.558 1579.53 867.023 1472.84 861.833 1378.83 860.081 1343.85 860.081 1335.11 865.271 1334.67 865.271 1334.67L886.294 1336.42 860 1335.28 865.271 775 909.07 775 909.07 1338.17C909.07 1339.92 909.38 1341.36 909.38 1346.6 909.38 1388.58 914.326 1530.56 979.149 1672.23 1010.68 1743.93 1057.99 1815.64 1128.07 1875.11 1196.39 1936.32 1287.5 1985.29 1406.63 2013.28L1401.38 2022.58 1401.38 2013.28 1418.9 2013.28 1412.71 2019.83 1413.64 2013.28C1532.77 1985.29 1623.88 1936.32 1692.2 1875.11 1795.57 1784.16 1851.63 1668.73 1879.67 1569.04 1909.45 1467.6 1910.89 1377.4 1910.89 1345.91 1910.89 1342.42 1912.95 1341.67 1911.2 1339.92L1911.2 775 1955 775Z" stroke="#DA291C" stroke-width="10.3125" stroke-miterlimit="8" fill="#DA291C" fill-rule="evenodd"/><text fill="#FFFFFF" font-family="Bahnschrift SemiCondensed,Bahnschrift SemiCondensed_MSFontService,sans-serif" font-weight="400" font-stretch="semi-condensed" font-size="92" transform="matrix(1 0 0 1 1179.45 794)">GRAND TOUR</text><text fill="#FFFFFF" font-family="Bahnschrift SemiCondensed,Bahnschrift SemiCondensed_MSFontService,sans-serif" font-weight="400" font-stretch="semi-condensed" font-size="50" transform="matrix(1 0 0 1 1236.17 868)">   </text><text fill="#FFFFFF" font-family="Bahnschrift SemiCondensed,Bahnschrift SemiCondensed_MSFontService,sans-serif" font-weight="400" font-stretch="semi-condensed" font-size="50" transform="matrix(1 0 0 1 1272.26 868)">of Switzerland</text><path d="M1137.35 573.73C1137.96 573.559 1138.55 573.497 1139.11 573.542 1139.68 573.587 1140.07 573.761 1140.3 574.063 1140.7 576.007 1141.38 579.073 1142.34 583.261 1143.3 587.449 1144.25 591.267 1145.17 594.714 1144.41 588.802 1144.47 583.788 1145.36 579.671 1146.25 575.554 1148.19 573.079 1151.19 572.245 1153.33 571.648 1155.32 571.865 1157.14 572.897 1158.97 573.929 1160.21 575.602 1160.85 577.917 1161.04 578.598 1161.46 580.498 1162.11 583.619 1162.9 587.507 1163.57 590.438 1164.12 592.412 1165.5 597.382 1166.99 599.644 1168.59 599.199 1169.75 598.877 1170.57 597.467 1171.04 594.968 1171.52 592.469 1171.61 589.171 1171.31 585.072 1171.36 584.84 1171.52 584.685 1171.79 584.61 1172.03 584.543 1172.3 584.615 1172.59 584.826 1172.89 585.037 1173.1 585.347 1173.21 585.755 1173.49 589.528 1173.47 592.523 1173.15 594.739 1172.83 596.954 1172.27 598.587 1171.46 599.638 1170.65 600.688 1169.59 601.397 1168.26 601.767 1165.64 602.496 1163.37 601.898 1161.46 599.973 1159.55 598.048 1158.11 595.349 1157.14 591.877 1156.76 590.481 1156.24 588.022 1155.59 584.499 1155.16 582.05 1154.78 580.212 1154.44 578.987 1154.05 577.591 1153.55 576.556 1152.94 575.883 1152.33 575.209 1151.64 574.981 1150.85 575.198 1149.01 575.71 1147.84 577.925 1147.34 581.843 1146.83 585.761 1146.78 590.068 1147.17 594.764 1147.56 599.46 1148.04 602.864 1148.63 604.974 1148.56 605.25 1148.32 605.557 1147.9 605.894 1147.48 606.231 1146.98 606.48 1146.4 606.641 1145.04 607.02 1144 606.794 1143.3 605.964 1142.57 605.066 1141.64 603.059 1140.52 599.943 1139.4 596.826 1138.29 593.311 1137.2 589.396 1136.37 586.435 1135.71 583.795 1135.21 581.476 1134.72 579.158 1134.47 577.557 1134.48 576.673 1134.5 575.936 1134.78 575.318 1135.31 574.819 1135.85 574.32 1136.53 573.957 1137.35 573.73Z" fill-rule="evenodd"/><text fill="#000000" fill-opacity="0" font-family="Arial,Arial_MSFontService,sans-serif" font-size="34.902" x="1134.48" y="602.456">N</text><path d="M1173.6 578.117C1174.29 577.963 1174.92 577.949 1175.49 578.076 1176.06 578.202 1176.41 578.45 1176.53 578.822 1176.64 579.956 1176.81 581.356 1177.06 583.021 1177.3 584.686 1177.59 586.26 1177.92 587.743 1179.07 592.916 1180.37 595.341 1181.82 595.018 1182.86 594.787 1183.71 593.53 1184.38 591.245 1185.04 588.961 1185.33 586 1185.25 582.363 1185.29 582.064 1185.46 581.88 1185.77 581.811 1186.02 581.757 1186.28 581.843 1186.56 582.069 1186.85 582.295 1187.03 582.653 1187.1 583.143 1187.21 587.827 1186.74 591.28 1185.69 593.504 1184.65 595.727 1183.13 597.062 1181.13 597.508 1179.68 597.831 1178.3 597.75 1176.98 597.266 1175.65 596.782 1174.63 595.953 1173.89 594.776 1173.04 593.374 1172.3 591.259 1171.67 588.432 1171.32 586.88 1171.06 585.354 1170.89 583.853 1170.72 582.353 1170.64 581.312 1170.65 580.729 1170.72 580.062 1171.04 579.502 1171.61 579.05 1172.18 578.597 1172.84 578.286 1173.6 578.117ZM1171.72 570.174C1172.55 569.989 1173.3 569.993 1173.98 570.187 1174.66 570.38 1175.06 570.769 1175.19 571.356 1175.31 571.907 1175.11 572.414 1174.58 572.876 1174.05 573.339 1173.37 573.662 1172.54 573.847 1171.75 574.023 1171.04 574.027 1170.43 573.857 1169.81 573.687 1169.43 573.291 1169.29 572.67 1169.15 572.05 1169.33 571.522 1169.81 571.089 1170.29 570.656 1170.93 570.351 1171.72 570.174Z" fill-rule="evenodd"/><text fill="#000000" fill-opacity="0" font-family="Arial,Arial_MSFontService,sans-serif" font-size="27.6632" x="1169.25" y="594.244">i</text><path d="M1193.05 573.537C1192.15 573.711 1191.44 574.46 1190.92 575.783 1190.4 577.106 1190.15 578.738 1190.16 580.678 1191.55 581.347 1192.7 581.594 1193.6 581.42 1194.57 581.233 1195.26 580.642 1195.66 579.647 1196.06 578.652 1196.15 577.582 1195.93 576.437 1195.75 575.5 1195.39 574.751 1194.85 574.189 1194.31 573.628 1193.71 573.41 1193.05 573.537ZM1192.23 571.806C1194.04 571.459 1195.54 571.708 1196.75 572.556 1197.96 573.403 1198.71 574.607 1199.01 576.168 1199.32 577.764 1199.11 579.253 1198.39 580.633 1197.66 582.014 1196.52 582.872 1194.97 583.207 1193.6 583.579 1192.04 583.412 1190.28 582.706 1190.4 583.691 1190.51 584.444 1190.61 584.964 1191.17 587.879 1192.14 590.013 1193.52 591.367 1194.89 592.721 1196.47 593.228 1198.23 592.887 1200.39 592.473 1202.15 590.965 1203.52 588.362 1204.89 585.759 1205.56 582.462 1205.55 578.471 1205.67 578.34 1205.82 578.258 1205.99 578.224 1206.3 578.164 1206.59 578.234 1206.87 578.433 1207.14 578.633 1207.31 578.923 1207.39 579.305 1207.31 583.421 1206.51 586.966 1204.98 589.942 1203.45 592.918 1200.98 594.733 1197.58 595.388 1195.71 595.748 1193.86 595.673 1192.03 595.161 1190.21 594.649 1188.62 593.659 1187.28 592.19 1185.93 590.722 1185.04 588.808 1184.58 586.449 1184.14 584.159 1184.16 581.969 1184.64 579.88 1185.12 577.791 1186.02 576.016 1187.34 574.557 1188.66 573.097 1190.29 572.18 1192.23 571.806Z" fill-rule="evenodd"/><text fill="#000000" fill-opacity="0" font-family="Arial,Arial_MSFontService,sans-serif" font-size="23.9569" x="1184.26" y="592.617">e</text><path d="M1215.06 570.865C1213.35 571.134 1212.15 572.388 1211.44 574.627 1210.74 576.866 1210.61 579.399 1211.06 582.226 1211.41 584.46 1212.02 586.233 1212.89 587.545 1213.75 588.857 1214.78 589.419 1215.97 589.232 1217.57 588.98 1218.65 587.362 1219.2 584.378 1219.75 581.394 1219.81 577.629 1219.38 573.082L1219.35 572.873 1219.24 572.192C1218.59 571.652 1217.9 571.268 1217.18 571.041 1216.47 570.814 1215.76 570.755 1215.06 570.865ZM1221.05 557.744C1221.71 557.64 1222.35 557.647 1222.95 557.766 1223.56 557.885 1223.98 558.088 1224.2 558.374 1224.62 564.855 1225.2 570.486 1225.95 575.268 1226.49 578.724 1227.15 581.384 1227.9 583.25 1228.66 585.116 1229.5 585.977 1230.4 585.834 1231.45 585.67 1232.33 584.529 1233.06 582.412 1233.78 580.296 1234.2 577.475 1234.33 573.95 1234.4 573.759 1234.57 573.644 1234.81 573.606 1235.09 573.562 1235.37 573.643 1235.65 573.849 1235.94 574.055 1236.09 574.387 1236.13 574.846 1235.95 579.347 1235.34 582.635 1234.3 584.711 1233.27 586.787 1231.78 587.979 1229.82 588.286 1228.32 588.523 1226.84 588.237 1225.37 587.431 1223.9 586.625 1222.86 585.627 1222.24 584.436 1221.88 583.706 1221.55 582.882 1221.26 581.961 1221.2 584.761 1220.72 587.01 1219.8 588.71 1218.89 590.409 1217.35 591.429 1215.19 591.77 1213.65 592.011 1212.15 591.8 1210.69 591.136 1209.22 590.473 1207.97 589.445 1206.93 588.053 1205.89 586.661 1205.22 585.057 1204.94 583.242 1204.6 581.078 1204.74 578.964 1205.36 576.898 1205.99 574.833 1207.03 573.077 1208.5 571.629 1209.98 570.181 1211.78 569.29 1213.9 568.955 1215.82 568.653 1217.5 568.979 1218.94 569.933 1218.61 567.624 1218.4 565.529 1218.3 563.649 1218.2 561.769 1218.22 560.461 1218.35 559.724 1218.48 559.168 1218.79 558.726 1219.27 558.399 1219.76 558.073 1220.35 557.854 1221.05 557.744Z" fill-rule="evenodd"/><text fill="#000000" fill-opacity="0" font-family="Arial,Arial_MSFontService,sans-serif" font-size="34.1954" x="1204.76" y="587.592">d</text><path d="M1243.05 565.677C1242.14 565.794 1241.38 566.497 1240.78 567.786 1240.18 569.074 1239.83 570.687 1239.72 572.625 1241.07 573.378 1242.19 573.696 1243.1 573.579 1244.09 573.453 1244.81 572.905 1245.27 571.937 1245.73 570.969 1245.89 569.907 1245.74 568.75 1245.62 567.804 1245.31 567.034 1244.8 566.44 1244.3 565.846 1243.72 565.591 1243.05 565.677ZM1242.34 563.898C1244.16 563.664 1245.65 564.007 1246.8 564.927 1247.95 565.848 1248.63 567.096 1248.83 568.673 1249.04 570.286 1248.74 571.758 1247.93 573.091 1247.12 574.424 1245.93 575.21 1244.36 575.448 1242.97 575.733 1241.42 575.469 1239.72 574.656 1239.77 575.646 1239.83 576.404 1239.9 576.93 1240.28 579.874 1241.12 582.064 1242.4 583.501 1243.69 584.938 1245.23 585.542 1247.02 585.312 1249.19 585.032 1251.04 583.636 1252.57 581.124 1254.1 578.612 1254.98 575.363 1255.22 571.378 1255.35 571.255 1255.5 571.182 1255.67 571.16 1255.99 571.119 1256.27 571.207 1256.53 571.423 1256.79 571.639 1256.95 571.94 1257 572.325 1256.67 576.428 1255.65 579.917 1253.94 582.792 1252.22 585.667 1249.65 587.325 1246.21 587.767 1244.32 588.011 1242.48 587.82 1240.69 587.196 1238.9 586.571 1237.38 585.484 1236.13 583.935 1234.88 582.386 1234.1 580.42 1233.79 578.037 1233.49 575.724 1233.65 573.54 1234.26 571.484 1234.87 569.429 1235.88 567.714 1237.28 566.339 1238.69 564.964 1240.38 564.151 1242.34 563.898Z" fill-rule="evenodd"/><text fill="#000000" fill-opacity="0" font-family="Arial,Arial_MSFontService,sans-serif" font-size="24.0428" x="1233.65" y="584.864">e</text><path d="M1254.25 562.196C1255.4 562.07 1256.23 562.656 1256.73 563.953 1258.8 563.374 1260.6 563.002 1262.15 562.835 1264.29 562.603 1265.9 562.804 1266.96 563.435 1268.02 564.067 1268.53 565.007 1268.49 566.255 1268.35 567.905 1268.25 569.817 1268.2 571.99 1268.15 574.163 1268.21 576.04 1268.38 577.621 1268.75 581.029 1269.67 582.653 1271.15 582.493 1272.38 582.361 1273.47 581.061 1274.43 578.594 1275.39 576.127 1276.04 572.974 1276.37 569.136 1276.48 568.875 1276.66 568.731 1276.91 568.704 1277.19 568.674 1277.46 568.787 1277.72 569.044 1277.98 569.3 1278.12 569.658 1278.13 570.119 1277.65 575.217 1276.76 578.929 1275.47 581.254 1274.17 583.58 1272.33 584.871 1269.94 585.129 1267.69 585.372 1265.88 584.84 1264.49 583.532 1263.11 582.224 1262.26 580.166 1261.96 577.355 1261.59 573.948 1261.87 569.92 1262.79 565.272L1261.52 565.408C1260.08 565.564 1258.62 565.811 1257.12 566.149 1257.18 568.026 1257.11 570.114 1256.89 572.411 1256.81 572.633 1256.66 572.756 1256.45 572.779 1256.21 572.805 1255.93 572.658 1255.61 572.337 1255.29 572.016 1255.13 571.713 1255.14 571.428 1255.18 569.54 1255.15 568.122 1255.05 567.173L1254.99 566.593C1254.24 566.568 1253.64 566.339 1253.18 565.909 1252.72 565.478 1252.46 564.947 1252.4 564.314 1252.34 563.823 1252.48 563.364 1252.81 562.937 1253.13 562.511 1253.61 562.264 1254.25 562.196Z" fill-rule="evenodd"/><text fill="#000000" fill-opacity="0" font-family="Arial,Arial_MSFontService,sans-serif" font-size="23.0073" x="1252.38" y="582.31">r</text><path d="M1278.99 550.932C1279.56 550.884 1280.07 550.929 1280.52 551.068 1280.98 551.206 1281.31 551.426 1281.51 551.728 1281.41 556.843 1281.62 562.392 1282.13 568.377 1282.37 571.088 1282.64 573.494 1282.96 575.594 1283.67 571.42 1284.65 567.87 1285.91 564.943 1287.17 562.016 1288.94 560.455 1291.23 560.26 1292.92 560.115 1294.39 560.477 1295.66 561.344 1296.92 562.211 1297.62 563.455 1297.76 565.074L1297.87 567.671C1298.05 570.954 1298.14 572.701 1298.16 572.912 1298.54 577.313 1299.45 579.451 1300.89 579.328 1301.95 579.238 1302.93 578.072 1303.84 575.832 1304.74 573.591 1305.44 570.517 1305.92 566.611 1306.05 566.423 1306.21 566.32 1306.43 566.301 1306.67 566.28 1306.93 566.4 1307.2 566.661 1307.47 566.921 1307.62 567.245 1307.66 567.633 1307.14 572.428 1306.26 575.935 1304.99 578.153 1303.73 580.371 1302.02 581.572 1299.87 581.755 1297.73 581.939 1295.93 581.374 1294.49 580.061 1293.05 578.748 1292.22 576.807 1292 574.237 1291.89 572.934 1291.85 571.43 1291.88 569.726 1291.86 567.812 1291.81 566.504 1291.75 565.8 1291.67 564.849 1291.52 564.126 1291.3 563.631 1291.08 563.135 1290.74 562.907 1290.29 562.946 1289.41 563.022 1288.54 564.08 1287.69 566.121 1286.83 568.162 1286.08 570.593 1285.44 573.414 1284.79 576.236 1284.33 578.775 1284.07 581.032 1283.67 581.74 1282.94 582.139 1281.88 582.229 1280.51 582.346 1279.39 581.733 1278.53 580.388 1277.92 579.412 1277.37 577.703 1276.9 575.261 1276.42 572.819 1276.04 569.909 1275.75 566.529 1275.53 563.924 1275.41 561.257 1275.39 558.528 1275.37 555.799 1275.46 554.035 1275.68 553.237 1275.87 552.547 1276.28 552.007 1276.9 551.617 1277.52 551.227 1278.22 550.998 1278.99 550.932Z" fill-rule="evenodd"/><text fill="#000000" fill-opacity="0" font-family="Arial,Arial_MSFontService,sans-serif" font-size="31.3295" x="1275.39" y="578.327">h</text><path d="M1311.14 569.532C1311.37 572.528 1311.99 574.931 1313.01 576.742 1314.03 578.554 1315.37 579.407 1317.03 579.301 1318.96 579.177 1320.31 577.764 1321.06 575.061 1318.89 574.951 1316.95 574.402 1315.24 573.414 1313.53 572.425 1312.17 571.131 1311.14 569.532ZM1314.97 558.667C1313.94 558.732 1313.15 559.217 1312.59 560.12 1312.03 561.023 1311.79 562.127 1311.87 563.432 1311.97 565.054 1312.43 566.574 1313.22 567.993 1314.02 569.411 1315.12 570.562 1316.52 571.447 1317.93 572.331 1319.57 572.819 1321.45 572.911 1321.54 572.056 1321.54 571.047 1321.47 569.883 1321.35 567.979 1321 566.151 1320.43 564.4 1319.86 562.648 1319.09 561.236 1318.14 560.164 1317.19 559.092 1316.13 558.593 1314.97 558.667ZM1315.63 556.607C1318.21 556.443 1320.34 557.342 1322.04 559.305 1323.74 561.267 1324.71 564.1 1324.95 567.803 1325.06 569.53 1325 571.127 1324.78 572.593 1328.19 571.703 1330.24 569.2 1330.94 565.084 1331.03 564.971 1331.15 564.911 1331.3 564.902 1331.61 564.881 1331.91 565.004 1332.2 565.269 1332.48 565.534 1332.63 565.826 1332.65 566.143 1332.32 568.182 1331.45 570.025 1330.05 571.672 1328.65 573.32 1326.71 574.364 1324.23 574.806 1323.55 576.903 1322.47 578.502 1321 579.605 1319.53 580.708 1317.83 581.321 1315.89 581.445 1314.09 581.56 1312.39 581.225 1310.8 580.441 1309.21 579.658 1307.89 578.423 1306.82 576.739 1305.76 575.054 1305.15 572.995 1305 570.562 1304.86 568.446 1305.17 566.532 1305.93 564.82 1306.69 563.107 1307.81 562.204 1309.29 562.109L1309.5 562.096C1309.76 560.557 1310.39 559.286 1311.41 558.283 1312.43 557.28 1313.83 556.721 1315.63 556.607Z" fill-rule="evenodd"/><text fill="#000000" fill-opacity="0" font-family="Arial,Arial_MSFontService,sans-serif" font-size="24.879" x="1304.97" y="578.357">o</text><path d="M1330.41 555.874C1331.57 555.82 1332.36 556.455 1332.78 557.78 1334.88 557.328 1336.71 557.065 1338.26 556.992 1340.41 556.892 1342 557.189 1343.02 557.884 1344.04 558.579 1344.5 559.548 1344.38 560.791 1344.14 562.43 1343.93 564.332 1343.74 566.498 1343.56 568.664 1343.51 570.542 1343.58 572.13 1343.74 575.554 1344.56 577.231 1346.05 577.161 1347.28 577.103 1348.45 575.872 1349.56 573.468 1350.67 571.064 1351.51 567.957 1352.07 564.145 1352.2 563.892 1352.39 563.759 1352.63 563.747 1352.92 563.734 1353.18 563.864 1353.42 564.135 1353.66 564.407 1353.78 564.773 1353.77 565.233 1352.98 570.293 1351.87 573.944 1350.43 576.187 1349 578.429 1347.08 579.607 1344.68 579.719 1342.42 579.825 1340.64 579.183 1339.34 577.794 1338.03 576.404 1337.32 574.298 1337.19 571.474 1337.02 568.051 1337.54 564.047 1338.75 559.463L1337.47 559.523C1336.03 559.591 1334.55 559.748 1333.04 559.996 1332.99 561.873 1332.78 563.952 1332.43 566.232 1332.33 566.449 1332.18 566.562 1331.97 566.572 1331.72 566.584 1331.45 566.419 1331.15 566.08 1330.85 565.74 1330.71 565.428 1330.73 565.144 1330.89 563.262 1330.95 561.844 1330.91 560.891L1330.88 560.309C1330.13 560.238 1329.55 559.974 1329.12 559.516 1328.69 559.059 1328.46 558.512 1328.43 557.877 1328.41 557.383 1328.57 556.933 1328.92 556.527 1329.28 556.122 1329.77 555.904 1330.41 555.874Z" fill-rule="evenodd"/><text fill="#000000" fill-opacity="0" font-family="Arial,Arial_MSFontService,sans-serif" font-size="23.8591" x="1328.43" y="576.748">r</text><path d="M1355.78 555.711C1356.34 555.695 1356.85 555.769 1357.3 555.932 1357.74 556.096 1358.01 556.336 1358.08 556.652 1357.91 559.025 1357.87 561.925 1357.97 565.351L1358.19 571.336C1359.17 567.172 1360.38 563.611 1361.83 560.653 1363.28 557.695 1365.14 556.183 1367.4 556.117 1369.1 556.068 1370.54 556.513 1371.73 557.45 1372.93 558.388 1373.55 559.669 1373.6 561.294L1373.56 563.892C1373.49 566.086 1373.47 567.837 1373.5 569.143 1373.63 573.558 1374.44 575.744 1375.92 575.701 1376.98 575.671 1378.03 574.562 1379.06 572.376 1380.09 570.19 1380.96 567.16 1381.66 563.287 1381.76 563.108 1381.92 563.015 1382.13 563.009 1382.41 563 1382.68 563.125 1382.93 563.383 1383.19 563.641 1383.32 563.981 1383.34 564.405 1382.52 569.166 1381.42 572.617 1380.03 574.761 1378.64 576.904 1376.89 578.006 1374.77 578.068 1372.65 578.129 1370.9 577.446 1369.51 576.019 1368.13 574.592 1367.4 572.625 1367.33 570.117 1367.29 568.811 1367.34 567.307 1367.46 565.607 1367.55 563.695 1367.58 562.386 1367.56 561.68 1367.53 560.726 1367.43 559.996 1367.23 559.489 1367.04 558.982 1366.72 558.735 1366.26 558.749 1365.38 558.774 1364.44 559.817 1363.46 561.878 1362.48 563.939 1361.57 566.404 1360.73 569.274 1359.89 572.144 1359.28 574.716 1358.89 576.989 1358.37 577.64 1357.62 577.98 1356.63 578.009 1355.79 578.033 1355.01 577.817 1354.31 577.36 1353.61 576.903 1353.08 576.22 1352.74 575.311 1352.54 574.645 1352.36 573.36 1352.18 571.457 1352 569.553 1351.88 567.63 1351.82 565.688 1351.77 563.886 1351.78 562.278 1351.84 560.862 1351.91 559.446 1352.02 558.471 1352.18 557.936 1352.38 557.224 1352.82 556.68 1353.52 556.307 1354.21 555.933 1354.97 555.735 1355.78 555.711Z" fill-rule="evenodd"/><text fill="#000000" fill-opacity="0" font-family="Arial,Arial_MSFontService,sans-serif" font-size="22.3624" x="1351.79" y="575.276">n</text><path d="M1388.57 561.419C1390.72 561.392 1392.05 561.411 1392.54 561.475 1393.29 561.607 1393.89 561.882 1394.35 562.3 1394.82 562.719 1395.05 563.14 1395.06 563.564 1395.06 563.846 1394.95 564.086 1394.72 564.284 1394.5 564.481 1394.17 564.582 1393.75 564.587L1381.98 564.734C1381.41 564.564 1381.13 564.162 1381.12 563.526 1381.11 563.102 1381.28 562.702 1381.61 562.327 1381.94 561.952 1382.39 561.743 1382.95 561.701 1384.26 561.543 1386.13 561.449 1388.57 561.419Z" fill-rule="evenodd"/><text fill="#000000" fill-opacity="0" font-family="Arial,Arial_MSFontService,sans-serif" font-size="3.32721" x="1381.12" y="564.318">-</text><path d="M1409.93 571.99C1408.2 571.983 1407.33 572.581 1407.32 573.782 1407.32 574.701 1407.79 575.497 1408.72 576.172 1409.65 576.847 1410.86 577.187 1412.35 577.193 1413.69 577.198 1414.95 576.867 1416.14 576.2 1417.33 575.533 1418.26 574.565 1418.93 573.295 1417.8 573.185 1416.3 572.95 1414.43 572.589 1412.35 572.193 1410.85 571.993 1409.93 571.99ZM1412.83 560.181C1410.53 561.197 1408.13 562.001 1405.62 562.592L1405.61 563.493C1405.6 566.744 1405.63 569.094 1405.69 570.543 1406.4 570.015 1407.5 569.754 1408.98 569.76 1409.69 569.763 1410.53 569.828 1411.5 569.955 1412.47 570.082 1413.43 570.236 1414.39 570.416 1414.67 570.453 1415.37 570.561 1416.48 570.742 1417.59 570.923 1418.64 571.05 1419.63 571.125 1419.77 570.595 1419.85 569.924 1419.85 569.112 1419.86 566.462 1419.18 564.383 1417.81 562.876 1416.43 561.37 1414.78 560.471 1412.83 560.181ZM1413.74 545.133C1411.37 545.124 1408.75 546.386 1405.88 548.919L1405.63 559.677C1407.57 559.155 1409.43 558.808 1411.2 558.638 1413.11 557.762 1414.62 556.496 1415.74 554.839 1416.86 553.183 1417.43 551.383 1417.43 549.439 1417.44 548.167 1417.13 547.133 1416.52 546.335 1415.9 545.538 1414.98 545.137 1413.74 545.133ZM1415.6 542.49C1417.76 542.498 1419.48 543.087 1420.76 544.258 1422.05 545.429 1422.69 547.003 1422.68 548.982 1422.67 550.89 1421.96 552.672 1420.54 554.327 1419.12 555.982 1417.33 557.407 1415.17 558.6 1418.6 558.86 1421.32 559.851 1423.35 561.572 1425.37 563.293 1426.38 565.514 1426.37 568.235 1426.37 569.118 1426.26 569.93 1426.05 570.672 1429.65 569.625 1431.84 567.142 1432.59 563.223 1432.7 563.011 1432.86 562.906 1433.07 562.907 1433.32 562.908 1433.57 563.068 1433.84 563.387 1434.1 563.706 1434.23 564.042 1434.23 564.395 1433.58 567.043 1432.44 569.061 1430.79 570.451 1429.14 571.84 1427.2 572.743 1424.98 573.159 1423.8 575.062 1422.09 576.558 1419.84 577.645 1417.6 578.732 1415.25 579.27 1412.82 579.261 1411.26 579.256 1409.85 579.012 1408.58 578.53 1407.31 578.048 1406.3 577.364 1405.57 576.478 1405.14 576.83 1404.61 577.005 1403.97 577.002 1403.34 577 1402.74 576.856 1402.17 576.572 1401.61 576.287 1401.19 575.844 1400.91 575.242 1400.34 574.144 1399.9 571.952 1399.58 568.665 1399.26 565.378 1399.1 561.791 1399.12 557.904 1399.13 555.007 1399.21 552.357 1399.36 549.955 1399.51 547.553 1399.71 545.928 1399.96 545.081 1400.17 544.34 1400.65 543.768 1401.4 543.364 1402.14 542.96 1402.92 542.76 1403.73 542.763 1404.33 542.765 1404.85 542.865 1405.29 543.061 1405.73 543.257 1406.01 543.496 1406.11 543.779L1406 546.535C1409.11 543.826 1412.32 542.477 1415.6 542.49Z" fill-rule="evenodd"/><text fill="#000000" fill-opacity="0" font-family="Arial,Arial_MSFontService,sans-serif" font-size="36.772" x="1399.11" y="574.665">B</text><path d="M1441.97 556.301C1441.05 556.282 1440.2 556.864 1439.41 558.049 1438.63 559.234 1438.04 560.777 1437.64 562.677 1438.86 563.621 1439.93 564.104 1440.85 564.123 1441.83 564.144 1442.63 563.711 1443.23 562.822 1443.83 561.934 1444.15 560.907 1444.17 559.741 1444.19 558.787 1444 557.979 1443.59 557.317 1443.18 556.654 1442.64 556.316 1441.97 556.301ZM1441.53 554.437C1443.37 554.476 1444.79 555.036 1445.79 556.118 1446.79 557.199 1447.27 558.535 1447.24 560.125 1447.2 561.75 1446.69 563.161 1445.69 564.359 1444.69 565.557 1443.4 566.157 1441.81 566.158 1440.39 566.234 1438.9 565.743 1437.33 564.685 1437.24 565.672 1437.19 566.431 1437.18 566.961 1437.12 569.928 1437.62 572.218 1438.68 573.831 1439.74 575.444 1441.17 576.27 1442.97 576.308 1445.16 576.355 1447.2 575.25 1449.08 572.993 1450.97 570.736 1452.33 567.655 1453.15 563.75 1453.3 563.647 1453.46 563.597 1453.63 563.601 1453.95 563.608 1454.22 563.737 1454.45 563.989 1454.67 564.242 1454.78 564.562 1454.77 564.951 1453.84 568.959 1452.31 572.258 1450.19 574.845 1448.06 577.433 1445.27 578.69 1441.81 578.616 1439.9 578.575 1438.11 578.113 1436.43 577.229 1434.75 576.345 1433.41 575.044 1432.41 573.326 1431.4 571.608 1430.92 569.549 1430.97 567.146 1431.02 564.815 1431.5 562.678 1432.41 560.736 1433.32 558.794 1434.57 557.248 1436.17 556.098 1437.76 554.948 1439.55 554.394 1441.53 554.437Z" fill-rule="evenodd"/><text fill="#000000" fill-opacity="0" font-family="Arial,Arial_MSFontService,sans-serif" font-size="24.1848" x="1430.97" y="575.596">e</text><path d="M1453.51 554.506C1454.68 554.548 1455.41 555.246 1455.72 556.6 1457.85 556.323 1459.69 556.212 1461.24 556.267 1463.4 556.344 1464.96 556.771 1465.92 557.548 1466.88 558.325 1467.25 559.328 1467.03 560.557 1466.66 562.17 1466.29 564.049 1465.93 566.193 1465.57 568.337 1465.36 570.203 1465.3 571.792 1465.18 575.217 1465.86 576.956 1467.35 577.009 1468.58 577.053 1469.85 575.923 1471.15 573.618 1472.45 571.313 1473.54 568.285 1474.42 564.533 1474.57 564.291 1474.77 564.175 1475.02 564.183 1475.3 564.193 1475.55 564.344 1475.77 564.635 1475.99 564.925 1476.07 565.299 1476.02 565.757 1474.82 570.735 1473.41 574.282 1471.8 576.399 1470.18 578.516 1468.17 579.531 1465.77 579.446 1463.51 579.365 1461.79 578.579 1460.61 577.087 1459.42 575.595 1458.88 573.437 1458.98 570.612 1459.1 567.187 1459.95 563.239 1461.53 558.77L1460.26 558.725C1458.81 558.673 1457.32 558.708 1455.8 558.831 1455.59 560.697 1455.21 562.752 1454.68 564.996 1454.56 565.204 1454.4 565.304 1454.19 565.296 1453.94 565.288 1453.68 565.102 1453.41 564.738 1453.14 564.375 1453.03 564.053 1453.07 563.772 1453.39 561.909 1453.56 560.501 1453.6 559.548L1453.62 558.965C1452.88 558.833 1452.32 558.521 1451.93 558.03 1451.54 557.539 1451.35 556.975 1451.38 556.34 1451.4 555.845 1451.6 555.41 1451.98 555.035 1452.37 554.66 1452.88 554.484 1453.51 554.506Z" fill-rule="evenodd"/><text fill="#000000" fill-opacity="0" font-family="Arial,Arial_MSFontService,sans-serif" font-size="24.9461" x="1451.38" y="576.332">r</text><path d="M1478.88 556.434C1479.44 556.464 1479.94 556.579 1480.37 556.78 1480.8 556.98 1481.04 557.241 1481.1 557.562 1480.72 559.913 1480.44 562.799 1480.26 566.221L1479.99 572.205C1481.31 568.135 1482.81 564.687 1484.5 561.859 1486.19 559.031 1488.17 557.678 1490.43 557.8 1492.12 557.891 1493.52 558.453 1494.63 559.486 1495.75 560.519 1496.26 561.847 1496.17 563.47L1495.93 566.058C1495.67 568.238 1495.5 569.981 1495.43 571.286 1495.19 575.696 1495.82 577.941 1497.3 578.021 1498.36 578.078 1499.49 577.06 1500.7 574.967 1501.91 572.874 1503.02 569.926 1504.04 566.124 1504.16 565.954 1504.32 565.874 1504.53 565.885 1504.82 565.901 1505.07 566.047 1505.31 566.325 1505.54 566.603 1505.64 566.954 1505.62 567.377 1504.41 572.054 1503.03 575.402 1501.47 577.424 1499.91 579.445 1498.07 580.398 1495.95 580.284 1493.84 580.17 1492.15 579.345 1490.89 577.808 1489.62 576.272 1489.06 574.251 1489.2 571.746 1489.27 570.44 1489.44 568.946 1489.7 567.262 1489.95 565.364 1490.09 564.062 1490.13 563.357 1490.18 562.404 1490.13 561.667 1489.98 561.146 1489.83 560.625 1489.53 560.352 1489.07 560.327 1488.19 560.28 1487.17 561.242 1486.02 563.215 1484.87 565.187 1483.76 567.569 1482.69 570.36 1481.62 573.151 1480.79 575.663 1480.21 577.896 1479.65 578.502 1478.87 578.779 1477.89 578.726 1477.04 578.68 1476.28 578.4 1475.62 577.887 1474.96 577.374 1474.5 576.65 1474.23 575.715 1474.09 575.035 1474.01 573.739 1473.99 571.828 1473.96 569.916 1474.01 567.989 1474.11 566.049 1474.21 564.25 1474.35 562.647 1474.53 561.242 1474.71 559.836 1474.91 558.873 1475.11 558.354 1475.36 557.659 1475.85 557.155 1476.57 556.84 1477.3 556.525 1478.06 556.39 1478.88 556.434Z" fill-rule="evenodd"/><text fill="#000000" fill-opacity="0" font-family="Arial,Arial_MSFontService,sans-serif" font-size="23.8677" x="1473.98" y="577.31">n</text><path d="M1514.28 559.719C1513.37 559.652 1512.49 560.189 1511.64 561.332 1510.8 562.475 1510.13 563.985 1509.64 565.862 1510.8 566.868 1511.84 567.405 1512.76 567.472 1513.75 567.544 1514.56 567.152 1515.21 566.296 1515.86 565.44 1516.22 564.431 1516.31 563.268 1516.38 562.317 1516.23 561.499 1515.85 560.816 1515.47 560.134 1514.95 559.768 1514.28 559.719ZM1513.94 557.834C1515.77 557.968 1517.16 558.601 1518.11 559.733 1519.05 560.865 1519.47 562.224 1519.35 563.81 1519.23 565.431 1518.64 566.813 1517.59 567.958 1516.53 569.103 1515.2 569.635 1513.62 569.554 1512.2 569.557 1510.73 568.989 1509.22 567.851 1509.08 568.833 1508.99 569.588 1508.95 570.116 1508.73 573.076 1509.11 575.389 1510.09 577.055 1511.07 578.721 1512.45 579.619 1514.25 579.751 1516.44 579.911 1518.53 578.912 1520.53 576.756 1522.53 574.6 1524.04 571.593 1525.07 567.735 1525.22 567.64 1525.38 567.599 1525.56 567.612 1525.87 567.635 1526.14 567.778 1526.35 568.042 1526.56 568.305 1526.65 568.631 1526.62 569.018 1525.48 572.974 1523.79 576.188 1521.53 578.663 1519.28 581.137 1516.42 582.248 1512.97 581.995 1511.07 581.856 1509.3 581.302 1507.67 580.332 1506.04 579.362 1504.77 577.994 1503.85 576.226 1502.94 574.459 1502.57 572.377 1502.74 569.981 1502.91 567.655 1503.5 565.546 1504.51 563.653 1505.52 561.761 1506.85 560.281 1508.5 559.216 1510.16 558.15 1511.97 557.689 1513.94 557.834Z" fill-rule="evenodd"/><text fill="#000000" fill-opacity="0" font-family="Arial,Arial_MSFontService,sans-serif" font-size="24.2226" x="1502.7" y="579.003">e</text><path d="M1525.97 558.533C1527.14 558.638 1527.83 559.375 1528.06 560.744 1530.21 560.583 1532.05 560.573 1533.6 560.713 1535.75 560.907 1537.28 561.418 1538.2 562.246 1539.12 563.074 1539.43 564.096 1539.14 565.312 1538.68 566.902 1538.21 568.758 1537.74 570.879 1537.26 573 1536.95 574.852 1536.81 576.436 1536.5 579.849 1537.08 581.622 1538.56 581.756 1539.79 581.868 1541.12 580.808 1542.55 578.578 1543.97 576.348 1545.22 573.383 1546.3 569.685 1546.47 569.451 1546.67 569.346 1546.92 569.368 1547.2 569.393 1547.44 569.557 1547.65 569.859 1547.85 570.162 1547.91 570.54 1547.84 570.994 1546.36 575.899 1544.76 579.364 1543.04 581.39 1541.31 583.415 1539.25 584.32 1536.86 584.103 1534.61 583.9 1532.93 583.021 1531.83 581.466 1530.73 579.912 1530.3 577.727 1530.56 574.912 1530.87 571.499 1531.93 567.604 1533.74 563.227L1532.48 563.112C1531.03 562.982 1529.55 562.936 1528.02 562.975 1527.71 564.827 1527.22 566.859 1526.56 569.07 1526.44 569.271 1526.27 569.362 1526.06 569.343 1525.81 569.321 1525.57 569.121 1525.32 568.744 1525.07 568.367 1524.97 568.039 1525.03 567.76 1525.45 565.918 1525.7 564.521 1525.78 563.571L1525.84 562.99C1525.11 562.818 1524.56 562.476 1524.2 561.964 1523.84 561.453 1523.69 560.88 1523.74 560.247 1523.79 559.754 1524.01 559.331 1524.42 558.977 1524.82 558.623 1525.34 558.475 1525.97 558.533Z" fill-rule="evenodd"/><text fill="#000000" fill-opacity="0" font-family="Arial,Arial_MSFontService,sans-serif" font-size="25.6141" x="1523.73" y="580.933">r</text><path d="M1578.4 555.164C1577.39 555.034 1576.22 555.58 1574.91 556.801 1573.6 558.023 1572.22 559.966 1570.77 562.632 1569.33 565.297 1567.96 568.631 1566.67 572.633L1577.76 574.049 1578.81 567.878C1579.01 566.621 1579.23 565.305 1579.48 563.929 1579.72 562.554 1579.92 561.288 1580.07 560.131 1580.26 558.624 1580.22 557.443 1579.93 556.587 1579.65 555.732 1579.14 555.257 1578.4 555.164ZM1580.29 552.946C1582.32 553.206 1583.93 554.239 1585.1 556.045 1586.28 557.852 1586.66 560.42 1586.23 563.749 1586.12 564.59 1585.72 566.925 1585.02 570.754 1584.14 575.415 1583.57 578.762 1583.31 580.794 1583.01 583.108 1582.99 584.796 1583.22 585.859 1583.46 586.923 1584.02 587.51 1584.9 587.622 1586.12 587.779 1587.42 586.787 1588.8 584.648 1590.18 582.508 1591.55 579.406 1592.93 575.343 1593.06 575.111 1593.25 575.011 1593.5 575.042 1593.75 575.073 1593.97 575.253 1594.18 575.583 1594.39 575.912 1594.46 576.287 1594.41 576.707 1592.74 581.73 1591.04 585.236 1589.33 587.226 1587.61 589.216 1585.62 590.065 1583.34 589.774 1580.64 589.43 1578.87 587.975 1578.02 585.409 1577.17 582.843 1576.95 579.983 1577.35 576.828L1577.43 576.197C1575.33 575.929 1571.5 575.512 1565.94 574.945 1564.82 578.685 1563.87 582.695 1563.07 586.975 1562.84 587.158 1562.49 587.221 1562.03 587.163 1561.23 587.06 1560.53 586.713 1559.95 586.122 1559.36 585.531 1559.13 584.78 1559.25 583.869 1559.57 581.31 1560.38 578.172 1561.68 574.455L1556.56 573.962C1556.44 573.804 1556.4 573.549 1556.44 573.199 1556.5 572.778 1556.71 572.423 1557.09 572.132 1557.46 571.842 1558.02 571.726 1558.76 571.785 1559.08 571.79 1559.69 571.851 1560.61 571.967L1562.51 572.156C1564.72 566.526 1567.39 561.808 1570.51 558.003 1573.63 554.198 1576.89 552.513 1580.29 552.946Z" fill-rule="evenodd"/><text fill="#000000" fill-opacity="0" font-family="Arial,Arial_MSFontService,sans-serif" font-size="36.9501" x="1556.42" y="585.211">A</text><path d="M1599.64 558.192C1600.34 558.301 1600.93 558.508 1601.4 558.814 1601.87 559.12 1602.09 559.485 1602.06 559.91 1601.56 561.692 1601 564.045 1600.37 566.968 1599.73 569.89 1599.2 572.713 1598.77 575.436 1598.18 579.241 1597.92 582.375 1598 584.837 1598.08 587.299 1598.65 588.612 1599.7 588.776 1600.71 588.934 1601.89 587.982 1603.23 585.921 1604.57 583.859 1605.84 581.135 1607.05 577.747 1607.12 577.543 1607.23 577.4 1607.39 577.317 1607.54 577.234 1607.69 577.203 1607.83 577.225 1608.11 577.269 1608.32 577.463 1608.46 577.807 1608.61 578.151 1608.62 578.6 1608.49 579.153 1606.82 583.719 1605.17 586.904 1603.57 588.71 1601.96 590.516 1600.15 591.26 1598.12 590.944 1596.59 590.704 1595.23 589.982 1594.04 588.777 1592.85 587.573 1592.13 586.181 1591.87 584.604 1591.76 583.693 1591.79 582.267 1591.95 580.325 1592.11 578.383 1592.37 576.26 1592.73 573.956 1593.25 570.604 1593.84 567.505 1594.5 564.658 1595.16 561.81 1595.75 560.015 1596.26 559.272 1596.58 558.787 1597.05 558.458 1597.67 558.286 1598.29 558.114 1598.95 558.083 1599.64 558.192Z" fill-rule="evenodd"/><text fill="#000000" fill-opacity="0" font-family="Arial,Arial_MSFontService,sans-serif" font-size="32.8867" x="1591.81" y="586.904">l</text><path d="M1613.95 587.382C1612.56 587.125 1611.78 587.431 1611.62 588.299 1611.5 588.959 1611.72 589.62 1612.28 590.28 1612.84 590.941 1613.43 591.329 1614.06 591.445 1615.31 591.676 1616.72 590.769 1618.28 588.722 1616.05 587.951 1614.61 587.504 1613.95 587.382ZM1621.57 574.131C1620.32 573.9 1618.77 574.87 1616.91 577.042 1615.05 579.214 1613.34 581.916 1611.77 585.147 1612.21 585.12 1612.72 585.161 1613.31 585.27 1614.25 585.444 1615.66 585.867 1617.55 586.539L1619.38 587.147C1620.19 585.86 1620.9 584.438 1621.52 582.88 1622.13 581.322 1622.56 579.883 1622.8 578.563 1623.03 577.312 1623.05 576.291 1622.85 575.5 1622.66 574.71 1622.23 574.253 1621.57 574.131ZM1612.56 569.501C1613.22 569.623 1613.79 569.818 1614.26 570.085 1614.73 570.352 1614.95 570.607 1614.9 570.85 1613.98 573.088 1613.07 576.403 1612.15 580.797 1613.75 577.752 1615.48 575.457 1617.33 573.912 1619.18 572.368 1621.09 571.779 1623.07 572.145 1624.25 572.363 1625.32 572.911 1626.27 573.788 1627.22 574.664 1627.93 575.784 1628.4 577.146 1628.86 578.507 1628.95 579.987 1628.65 581.586 1628.19 584.122 1627.02 586.457 1625.15 588.591 1629.59 589.053 1632.66 587.106 1634.37 582.75 1634.5 582.596 1634.66 582.534 1634.83 582.567 1635.11 582.618 1635.35 582.807 1635.56 583.133 1635.77 583.459 1635.84 583.813 1635.77 584.195 1634.59 587.068 1632.95 588.928 1630.83 589.777 1628.72 590.625 1626.43 590.821 1623.96 590.365L1623.44 590.269C1622.03 591.481 1620.52 592.38 1618.92 592.964 1617.32 593.549 1615.88 593.723 1614.6 593.485 1613.76 593.331 1612.97 593.004 1612.22 592.506 1611.47 592.007 1610.87 591.411 1610.42 590.718 1609.84 595.21 1609.6 598.849 1609.69 601.633 1609.6 601.939 1609.16 602.173 1608.38 602.333 1607.59 602.494 1606.82 602.503 1606.06 602.362 1604.77 602.124 1604.03 601.556 1603.84 600.658 1603.54 599.165 1603.51 596.967 1603.74 594.064 1603.97 591.16 1604.39 588.075 1604.99 584.809 1605.53 581.891 1606.15 579.184 1606.84 576.69 1607.54 574.195 1608.26 572.19 1609 570.676 1609.32 570.124 1609.81 569.756 1610.48 569.573 1611.14 569.39 1611.83 569.366 1612.56 569.501Z" fill-rule="evenodd"/><text fill="#000000" fill-opacity="0" font-family="Arial,Arial_MSFontService,sans-serif" font-size="33.0457" x="1603.59" y="598.33">p</text><path d="M1645.23 577.952C1644.34 577.749 1643.39 578.149 1642.38 579.152 1641.37 580.156 1640.49 581.549 1639.72 583.331 1640.72 584.501 1641.67 585.187 1642.57 585.39 1643.53 585.609 1644.4 585.344 1645.17 584.594 1645.93 583.845 1646.45 582.901 1646.7 581.764 1646.92 580.834 1646.89 580.003 1646.62 579.272 1646.35 578.541 1645.89 578.101 1645.23 577.952ZM1645.18 576.038C1646.97 576.444 1648.25 577.278 1649.01 578.538 1649.78 579.799 1649.98 581.204 1649.63 582.755 1649.27 584.34 1648.48 585.619 1647.27 586.593 1646.05 587.567 1644.66 587.895 1643.1 587.577 1641.7 587.368 1640.34 586.588 1639.01 585.236 1638.73 586.186 1638.52 586.919 1638.41 587.435 1637.75 590.33 1637.78 592.673 1638.5 594.466 1639.21 596.259 1640.45 597.355 1642.21 597.754 1644.34 598.239 1646.56 597.565 1648.86 595.732 1651.16 593.899 1653.11 591.152 1654.7 587.492 1654.86 587.42 1655.03 587.403 1655.2 587.442 1655.51 587.513 1655.75 587.694 1655.92 587.986 1656.09 588.278 1656.13 588.614 1656.04 588.993 1654.32 592.733 1652.17 595.658 1649.57 597.767 1646.97 599.877 1643.98 600.549 1640.6 599.782 1638.74 599.36 1637.08 598.547 1635.61 597.345 1634.15 596.143 1633.09 594.599 1632.45 592.715 1631.81 590.83 1631.76 588.716 1632.29 586.373 1632.81 584.099 1633.7 582.101 1634.98 580.381 1636.26 578.66 1637.8 577.396 1639.59 576.59 1641.39 575.784 1643.25 575.6 1645.18 576.038Z" fill-rule="evenodd"/><text fill="#000000" fill-opacity="0" font-family="Arial,Arial_MSFontService,sans-serif" font-size="24.2821" x="1631.93" y="597.053">e</text><path d="M1661.06 580.593C1661.61 580.75 1662.07 580.974 1662.44 581.267 1662.82 581.559 1662.99 581.868 1662.97 582.193 1662.08 584.399 1661.15 587.147 1660.2 590.44L1658.59 596.207C1660.79 592.541 1663.03 589.521 1665.32 587.148 1667.61 584.775 1669.84 583.903 1672.01 584.531 1673.64 585.003 1674.88 585.867 1675.73 587.125 1676.58 588.382 1676.78 589.792 1676.32 591.353L1675.5 593.818C1674.76 595.883 1674.2 597.544 1673.84 598.799 1672.61 603.042 1672.71 605.37 1674.14 605.782 1675.15 606.077 1676.49 605.341 1678.14 603.575 1679.79 601.809 1681.54 599.189 1683.39 595.716 1683.54 595.575 1683.72 595.535 1683.92 595.594 1684.2 595.672 1684.41 595.873 1684.58 596.196 1684.74 596.52 1684.76 596.885 1684.65 597.292 1682.41 601.575 1680.31 604.525 1678.33 606.142 1676.36 607.759 1674.35 608.273 1672.32 607.683 1670.28 607.094 1668.82 605.909 1667.94 604.127 1667.06 602.345 1666.96 600.249 1667.66 597.84 1668.02 596.584 1668.53 595.166 1669.17 593.586 1669.83 591.792 1670.26 590.556 1670.46 589.877 1670.73 588.961 1670.85 588.232 1670.82 587.691 1670.79 587.149 1670.56 586.815 1670.11 586.687 1669.27 586.442 1668.06 587.15 1666.49 588.812 1664.93 590.474 1663.31 592.543 1661.63 595.02 1659.96 597.497 1658.59 599.758 1657.52 601.802 1656.83 602.266 1656.02 602.36 1655.07 602.085 1654.25 601.849 1653.58 601.407 1653.05 600.757 1652.52 600.107 1652.23 599.297 1652.18 598.326 1652.2 597.632 1652.41 596.352 1652.82 594.484 1653.24 592.617 1653.71 590.75 1654.25 588.884 1654.75 587.153 1655.25 585.623 1655.74 584.295 1656.24 582.967 1656.65 582.073 1656.96 581.612 1657.36 580.993 1657.95 580.611 1658.73 580.468 1659.5 580.325 1660.28 580.367 1661.06 580.593Z" fill-rule="evenodd"/><text fill="#000000" fill-opacity="0" font-family="Arial,Arial_MSFontService,sans-serif" font-size="27.5344" x="1652.18" y="604.478">n</text><g clip-path="url(#clip1)"><g clip-path="url(#clip2)"><g clip-path="url(#clip3)"><path d="M1094.34 577.516C1099.99 574.737 1106.11 572.92 1112.68 572.006 1119.18 585.229 1126.18 599.186 1112.81 615.092 1092.05 615.967 1085.28 601.898 1078.78 588.675 1083.51 584.033 1088.69 580.294 1094.34 577.516Z" fill="#FF0000"/><path d="M1089.7 596.633 1097.62 592.744 1093.73 584.833 1100.51 581.499 1104.4 589.41 1112.31 585.521 1115.64 592.301 1107.73 596.191 1111.62 604.102 1104.84 607.435 1100.95 599.525 1093.04 603.414Z" fill="#FFFFFF"/></g></g></g><g clip-path="url(#clip4)"><g clip-path="url(#clip5)"><g clip-path="url(#clip6)"><path d="M1728.13 583.256 1743.67 590.208 1733.45 613.057C1729.78 621.269 1719.85 624.816 1711.27 620.978 1702.69 617.141 1698.71 607.374 1702.38 599.162L1712.6 576.313 1728.13 583.256Z" fill="#FFD72E"/><path d="M1735.33 605.048C1735.28 604.377 1734.09 601.25 1732.05 598.573 1731.16 597.393 1728.37 593.776 1725.61 591.878 1725.31 591.673 1725.09 591.404 1724.73 591.333 1724.58 591.304 1724.46 591.015 1724.75 590.986 1724.92 590.968 1725.08 590.965 1725.74 591.276 1725.35 590.625 1725.13 590.602 1724.22 590.215 1724.58 589.933 1725.63 590.403 1725.63 590.403 1725.63 590.403 1725.28 589.887 1723.79 589.346 1724.19 589.235 1724.81 589.376 1724.81 589.376 1724.81 589.376 1724.16 588.7 1723.07 588.71 1722.99 588.71 1722.87 588.743 1722.69 588.675 1722.51 588.606 1722.1 588.348 1722.03 588.301 1721.97 588.253 1721.72 588.081 1721.86 587.841 1722 587.601 1722.22 587.693 1722.28 587.713 1722.34 587.73 1722.97 588.07 1723.28 587.833 1723.49 587.671 1724.07 586.935 1723.59 586.432 1722.91 585.714 1722.36 585.807 1722.22 585.78 1722.08 585.752 1721.96 585.545 1721.96 585.545 1721.96 585.545 1721.61 584.594 1721.47 584.343 1721.33 584.092 1720.85 583.539 1720.43 583.254 1720.33 583.192 1720.17 583.061 1720.16 583.026 1720.09 582.891 1719.77 582.687 1719.64 582.642 1719.48 582.586 1719.17 582.385 1718.87 582.577 1718.68 582.698 1718.59 582.663 1718.34 582.598 1718.1 582.533 1717.51 582.229 1717.51 582.229 1717.51 582.229 1716.73 581.878 1716.56 581.594 1716.48 581.461 1716.26 580.973 1716.21 580.81 1716.17 580.65 1715.99 580.653 1715.98 580.702 1715.94 580.947 1715.72 581.324 1715.37 581.478 1714.97 581.652 1714.55 581.794 1714.47 581.835 1714.38 581.875 1714.16 582.148 1714.29 582.35 1714.43 582.549 1714.53 582.702 1714.53 582.702 1714.53 582.702 1714.07 583.42 1713.99 583.664 1713.85 583.511 1713.62 583.21 1713.5 582.98 1712.73 581.475 1713.11 580.35 1712.88 580.198 1712.65 580.046 1711.74 581.163 1712.04 582.341 1712.38 583.705 1713.79 584.621 1713.79 584.621 1713.79 584.621 1713.4 584.825 1713.24 585.271 1712.92 585.284 1712.84 585.358 1712.84 585.358 1712.84 585.358 1712.74 585.52 1712.85 585.732 1717.59 587.719 1718.98 593.706 1715.9 598.491 1715.45 599.185 1714.06 600.799 1713.59 601.24 1713.13 601.681 1712.67 602.531 1712.67 602.531 1712.67 602.531 1712.47 602.772 1712.34 602.691 1712.22 602.613 1712.26 602.501 1712.29 602.433 1712.36 602.342 1712.45 601.9 1712.6 601.663 1712.75 601.431 1712.68 601.185 1712.68 601.185 1712.68 601.185 1713.4 600.543 1712.78 599.431 1712.54 600.416 1712.15 600.485 1712.15 600.485 1712.15 600.485 1712.31 599.098 1711.08 598.596 1711.4 599.279 1711.19 599.96 1711.19 600.014 1711.17 599.655 1710.32 598.317 1709.13 599.089 1710.29 599.693 1710.29 600.23 1710.29 600.23 1710.29 600.23 1709.1 599.072 1707.89 600.163 1708.64 600.29 1709.29 600.744 1709.29 600.744 1709.29 600.744 1708.36 600.558 1708.02 601.291 1708.58 601.273 1709.24 601.748 1709.24 601.748 1709.24 601.748 1709.22 601.739 1709.19 601.813 1709.29 601.9 1709.46 602.917 1709.8 603.318 1710.15 603.719 1712.56 604.978 1713.83 604.962 1714.16 604.959 1714.15 605.016 1714.4 604.728 1715.22 603.784 1717.86 601.381 1719.59 599.961 1720.75 599.006 1721.7 598.411 1721.73 598.335 1721.8 598.186 1721.43 596.997 1721.38 596.861 1721.34 596.726 1721.53 596.744 1721.53 596.744 1721.53 596.744 1722.04 597.138 1722.12 597.578 1722.21 598.02 1722.22 598.099 1722.09 598.256 1721.96 598.412 1720.96 599.509 1720.96 599.509 1720.96 599.509 1727.34 602.998 1727.28 603.237 1727.23 603.477 1725.03 602.729 1724.42 602.599 1723.38 602.376 1721.99 603.109 1721.94 603.472 1721.72 604.98 1720.36 608.391 1720.28 608.659 1720.2 608.927 1720.48 609.206 1720.61 609.271 1720.74 609.335 1721.42 609.648 1721.43 609.785 1721.45 609.921 1721.33 609.919 1721.33 609.919 1721.33 609.919 1721.13 609.961 1720.87 609.814 1720.61 609.669 1719.21 608.518 1719.08 608.114 1718.95 607.71 1718.89 607.505 1718.89 607.505 1718.89 607.505 1719.62 606.283 1718.32 605.871 1718.49 606.694 1718.03 606.82 1718.03 606.82 1718.03 606.82 1717.96 605.646 1716.21 605.418 1717.07 606.283 1716.97 606.592 1716.97 606.592 1716.97 606.592 1716.28 605.825 1715.05 606.245 1716.19 606.774 1716.15 607.291 1716.15 607.291 1716.15 607.291 1714.97 606.44 1714.08 607.713 1715.27 607.554 1715.6 608.149 1715.6 608.149 1715.6 608.149 1713.97 607.956 1713.8 609.396 1714.61 609.093 1715.38 609.27 1715.38 609.27L1715.37 609.338C1715.37 609.338 1715.65 609.634 1715.96 609.777 1716.26 609.919 1716.36 609.904 1716.4 609.715 1716.43 609.527 1716.58 609.363 1716.61 609.299 1716.65 609.237 1716.77 609.268 1716.77 609.268 1716.77 609.268 1716.84 609.283 1716.82 609.393 1716.77 609.64 1716.52 609.748 1716.63 610.1 1716.73 610.453 1717.09 610.546 1717.18 610.634 1717.27 610.72 1717.81 611.096 1717.81 611.096 1717.81 611.096 1719.34 612.129 1719.97 612.14 1720.41 612.148 1721.81 611.932 1722.32 611.577 1722.57 611.405 1722.77 611.13 1722.96 610.812 1723.66 609.59 1724.67 608.202 1725.92 607.891 1726.01 607.865 1726.18 607.89 1726.29 607.876 1726.4 607.862 1726.49 607.878 1726.56 607.806 1726.67 607.616 1727.49 604.853 1727.76 604.107 1728.26 602.759 1727.73 601.311 1727.73 601.311 1727.73 601.311 1727.77 601.225 1727.89 601.251 1728 601.275 1728.15 601.393 1728.15 601.393 1728.15 601.393 1728.78 601.641 1728.16 604.254 1727.54 606.864 1726.72 608.811 1726.79 609.936 1726.82 610.277 1727.01 611.661 1727.07 612.963 1727.13 614.039 1726.99 614.713 1727.01 615.155 1727.05 616.132 1726.22 616.942 1726.02 616.98 1725.81 617.017 1725.84 616.912 1725.8 616.854 1725.76 616.793 1726.01 616.443 1726.01 616.443 1726.01 616.443 1726.25 616.327 1726.18 615.9 1726.12 615.47 1725.25 614.797 1725.25 614.797 1725.25 614.797 1725.15 614.627 1725.08 614.535 1725.62 613.607 1724.03 612.789 1724.03 612.789 1724.03 612.789 1724.2 613.663 1723.85 614.274 1723.07 612.892 1721.74 613.327 1721.74 613.327 1721.74 613.327 1722.55 613.876 1722.64 614.753 1721.26 613.663 1720.58 614.734 1720.58 614.734 1720.58 614.734 1721.34 614.728 1721.78 615.55 1720.27 615.006 1719.98 616.258 1719.98 616.258 1719.98 616.258 1720.59 615.926 1721.55 616.81 1721.51 616.834 1720.3 617.103 1720.38 618.455 1720.64 618.23 1721.18 617.92 1721.66 617.933 1721.68 618.003 1721.69 618.003 1721.7 618.021 1721.7 618.021 1722.77 618.039 1723.23 618.231 1723.7 618.424 1724.09 618.564 1724.71 618.769 1725.33 618.973 1725.8 618.847 1726.15 618.811 1726.5 618.775 1728.22 617.86 1728.61 617.742 1728.99 617.622 1729.25 617.24 1729.25 617.24 1729.25 617.24 1729.69 616.735 1730.4 615.434 1731.11 614.132 1732.02 612.31 1732.52 611.115 1733.2 609.487 1733.86 605.426 1733.86 605.426 1733.86 605.426 1733.91 605.304 1734.01 605.312 1734.11 605.322 1734.1 605.351 1734.13 605.597 1734.16 605.84 1733.93 606.974 1734.06 607.21 1734.11 607.301 1734 607.515 1734.35 607.533 1734.45 607.539 1734.85 607.014 1735.05 606.717 1735.24 606.416 1735.38 605.717 1735.33 605.048M1715.16 583.38C1715.19 583.409 1715.22 583.446 1715.22 583.446 1715.22 583.446 1714.84 584.099 1714.8 584.453 1714.45 584.102 1714.16 583.824 1714.16 583.824 1714.16 583.824 1714.84 583.378 1715.16 583.38M1714.14 585.715C1714.12 585.709 1714.08 585.68 1714.01 585.643 1713.81 585.242 1713.99 584.779 1713.99 584.779 1713.99 584.779 1714.61 585.26 1714.7 585.366 1714.58 585.488 1714.25 585.564 1714.14 585.715M1714.93 586.236C1714.86 586.17 1714.74 585.904 1714.78 585.784 1714.85 585.623 1714.86 585.506 1714.86 585.506 1714.86 585.506 1715.75 586.239 1715.82 586.877 1715.45 586.59 1715 586.301 1714.93 586.236M1714.88 584.546C1714.88 584.546 1715.45 584.166 1715.8 584.158 1716.54 585.085 1716.61 586.154 1716.5 586.838 1716.27 585.929 1714.88 584.546 1714.88 584.546"/><path d="M1710.93 593.468C1712.33 593.66 1714.21 592.855 1715.5 592.362 1716.24 592.082 1716.72 591.982 1716.86 591.947 1716.95 592.135 1717.12 593.499 1716.97 594.677 1716.86 595.587 1716.46 596.409 1716.35 596.642 1715.98 597.35 1715.44 597.28 1715.44 597.28 1715.44 597.28 1712.1 596.934 1711.6 596.697 1711.38 596.587 1709.4 596.218 1708.91 595.938 1707.61 595.201 1707.57 594.406 1707.57 594.406L1707.42 592.925C1707.42 592.925 1707.46 592.611 1707.67 592.805 1707.88 593.001 1707.91 593.02 1708.11 593.182 1708.3 593.345 1708.22 593.042 1708.22 593.042 1708.22 593.042 1708.06 592.82 1707.9 592.649 1707.4 592.095 1707.74 591.149 1707.74 591.149 1707.74 591.149 1708.05 590.378 1708.33 589.838 1708.61 589.297 1707.31 588.758 1707.31 588.758 1707.31 588.758 1708.25 587.964 1709.5 589.228 1709.76 588.69 1708.61 587.69 1708.61 587.69 1708.61 587.69 1709.81 587.192 1710.77 589.064 1711.24 588.224 1710.79 587.187 1710.79 587.187 1710.79 587.187 1712.09 587.504 1711.83 589.393 1712.52 589.21 1712.71 587.952 1712.71 587.952 1712.71 587.952 1713.59 589.114 1712.7 590.129 1713.35 590.292 1713.93 589.607 1713.93 589.607 1713.93 589.607 1714.02 590.635 1712.91 591.104 1712.49 591.28 1712.47 591.163 1712.47 591.163 1712.47 591.163 1710.56 592.196 1710.44 594.536 1710.43 594.837 1710.68 594.718 1710.75 594.613 1710.83 594.508 1710.95 594.055 1710.93 593.468"/><path d="M1721.63 584.196C1721.63 584.196 1722.16 585.386 1722.19 585.525 1722.23 585.642 1722.89 585.591 1723.14 585.779 1723.29 585.894 1723.26 585.261 1723.22 585.064 1723.18 584.868 1723 584.336 1722.54 584.216 1722.15 584.114 1721.63 584.196 1721.63 584.196"/><path d="M1715.98 586.646C1715.77 585.896 1714.89 585.23 1713.89 584.438 1713.17 583.865 1712.44 583.115 1712.28 582.286 1712.2 581.854 1712.25 581.442 1712.38 581.111 1712.48 580.864 1712.61 580.667 1712.72 580.546 1712.72 580.599 1712.72 580.654 1712.72 580.706 1712.73 581.217 1712.74 582.077 1713.27 583.087 1713.53 583.567 1714.14 584.09 1714.71 584.655 1715.33 585.236 1715.95 585.962 1716.21 586.661 1716.21 586.661 1716.36 587.133 1716.34 587.259 1716.28 587.216 1716.18 587.142 1716.06 587.06 1716.06 586.918 1715.98 586.646 1715.98 586.646" fill="#E7423F"/><path d="M1715.98 586.646C1715.77 585.896 1714.89 585.23 1713.89 584.438 1713.17 583.865 1712.44 583.115 1712.28 582.286 1712.2 581.854 1712.25 581.442 1712.38 581.111 1712.48 580.864 1712.61 580.667 1712.72 580.546 1712.72 580.599 1712.72 580.654 1712.72 580.706 1712.73 581.217 1712.74 582.077 1713.27 583.087 1713.53 583.567 1714.14 584.09 1714.71 584.655 1715.33 585.236 1715.95 585.962 1716.21 586.661 1716.21 586.661 1716.36 587.133 1716.34 587.259 1716.28 587.216 1716.18 587.142 1716.06 587.06 1716.06 586.918 1715.98 586.646 1715.98 586.646Z" stroke="#E41E2E" stroke-width="0.0749127" fill="none"/><path d="M1713.4 585.341C1713.51 585.391 1713.67 585.444 1713.78 585.511 1713.67 585.319 1713.8 584.829 1713.8 584.829 1713.8 584.829 1713.52 585.014 1713.4 585.341" fill="#FFFFFF"/><path d="M1714.29 585.813C1714.4 585.871 1714.47 585.933 1714.65 586.053 1714.53 585.862 1714.7 585.681 1714.67 585.558 1714.47 585.699 1714.38 585.687 1714.29 585.813" fill="#FFFFFF"/><path d="M1715.03 584.261C1715.34 584.056 1715.66 583.992 1715.67 583.995 1715.61 583.918 1715.34 583.588 1715.34 583.588 1715.34 583.588 1715.02 584.227 1715.03 584.261" fill="#FFFFFF"/><path d="M1714.21 583.592C1714.21 583.592 1714.82 583.238 1715.03 583.235 1714.8 583.042 1714.72 582.932 1714.66 582.845 1714.4 583.216 1714.21 583.592 1714.21 583.592" fill="#FFFFFF"/><path d="M1726.02 603.985C1726.02 603.985 1727.11 604.295 1727.47 605.036 1727.5 604.938 1727.68 604.365 1727.68 604.365 1727.68 604.365 1726.84 603.56 1726.02 603.985" fill="#E7423F"/><path d="M1726.02 603.985C1726.02 603.985 1727.11 604.295 1727.47 605.036 1727.5 604.938 1727.68 604.365 1727.68 604.365 1727.68 604.365 1726.84 603.56 1726.02 603.985Z" stroke="#E41E2E" stroke-width="0.0749127" fill="none"/><path d="M1719.49 583.226C1719.49 583.226 1719.76 583.374 1719.74 583.691 1719.72 583.998 1719.59 584.409 1719.03 585.124 1718.98 585.19 1718.84 585.109 1718.88 585.016 1718.91 584.923 1719.19 584.564 1719.32 584.343 1719.44 584.122 1719.54 583.822 1719.49 583.717 1719.46 583.631 1719.36 583.531 1719.33 583.514 1719.31 583.496 1719.18 583.406 1719.27 583.287 1719.36 583.168 1719.49 583.226 1719.49 583.226" fill="#FFFFFF"/><path d="M1719.21 584.041C1719.37 584.065 1719.37 583.893 1719.22 583.753 1719.08 583.612 1718.64 583.538 1718.35 583.854 1718.09 584.143 1718.51 584.669 1718.63 584.714 1718.82 584.793 1718.99 584.557 1718.9 584.452 1718.81 584.347 1718.63 584.246 1718.72 584.104 1718.8 583.96 1719.05 584.019 1719.21 584.041" fill="#FFFFFF"/><path d="M1712.69 590.392C1712.69 590.392 1713.01 590.55 1713.55 590.209 1713.33 590.631 1712.82 590.841 1712.82 590.841L1712.69 590.392Z" fill="#E7423F"/><path d="M1707.92 588.794C1708.56 588.622 1709.33 589.426 1709.33 589.426L1708.66 589.629C1708.66 589.628 1708.66 589.118 1707.92 588.794" fill="#E7423F"/><path d="M1709.22 587.93C1709.99 588.018 1710.58 589.277 1710.58 589.277 1710.58 589.277 1709.95 589.311 1709.77 589.318 1709.81 589.267 1710 588.619 1709.22 587.93" fill="#E7423F"/><path d="M1711.19 587.696C1711.75 588.224 1711.52 589.443 1711.52 589.443L1710.94 589.31C1710.94 589.31 1711.4 588.676 1711.19 587.696" fill="#E7423F"/><path d="M1711.97 589.643C1712.34 589.495 1712.69 589.159 1712.8 588.631 1712.9 588.871 1712.82 589.635 1712.41 590.034 1712.35 589.958 1712.3 589.809 1711.97 589.643" fill="#E7423F"/><path d="M1712.55 600.957C1712.49 600.857 1712.35 600.767 1712.25 600.721 1712.65 600.578 1712.77 600.151 1712.77 600.151 1712.77 600.151 1712.84 600.689 1712.55 600.957" fill="#E7423F"/><path d="M1711.87 600.56C1711.59 600.467 1711.38 600.443 1711.32 600.448 1711.62 599.67 1711.51 599.2 1711.51 599.2 1711.51 599.2 1711.97 599.833 1711.87 600.56" fill="#E7423F"/><path d="M1711.03 600.431C1710.86 600.467 1710.9 600.439 1710.61 600.505 1710.55 599.986 1710.43 599.521 1709.56 599.107 1710.45 598.926 1711.04 599.884 1711.03 600.431" fill="#E7423F"/><path d="M1708.51 600.075C1708.96 599.718 1709.97 600.139 1710.34 600.627 1710.11 600.735 1710.04 600.799 1709.9 600.966 1709.58 600.488 1708.76 600.157 1708.51 600.075" fill="#E7423F"/><path d="M1708.5 601.114C1709.03 600.82 1709.71 601.119 1709.71 601.144 1709.67 601.164 1709.39 601.476 1709.37 601.524 1709.35 601.488 1709.02 601.227 1708.5 601.114" fill="#E7423F"/><path d="M1718.67 607.344C1718.54 607.243 1718.35 607.114 1718.22 607.028 1718.3 606.999 1718.66 606.642 1718.6 606.236 1718.73 606.334 1719 606.594 1718.67 607.344" fill="#E7423F"/><path d="M1717.24 606.762C1717.49 606.729 1717.62 606.77 1717.76 606.844 1717.77 606.351 1717.02 605.817 1716.85 605.799 1716.93 605.881 1717.37 606.414 1717.24 606.762" fill="#E7423F"/><path d="M1715.7 606.354C1716.38 606.333 1716.81 606.771 1716.84 606.816 1716.75 606.847 1716.51 606.951 1716.37 607.085 1716.37 606.743 1715.7 606.354 1715.7 606.354" fill="#E7423F"/><path d="M1714.58 607.457C1714.67 607.371 1715.43 607.083 1715.95 607.514 1715.78 607.636 1715.73 607.724 1715.71 607.881 1715.24 607.392 1714.6 607.46 1714.58 607.457" fill="#E7423F"/><path d="M1714.15 609.042C1714.6 608.404 1715.2 608.432 1715.5 608.427 1715.44 608.533 1715.34 608.859 1715.36 608.97 1715.3 608.925 1714.59 608.819 1714.15 609.042" fill="#E7423F"/><path d="M1724.71 614.444C1724.52 614.413 1724.21 614.406 1724.09 614.423 1724.3 614.016 1724.36 613.545 1724.32 613.307 1724.51 613.425 1725 613.949 1724.71 614.444" fill="#E7423F"/><path d="M1722.93 614.825C1722.96 614.618 1722.7 613.806 1722.28 613.508 1722.72 613.473 1723.33 613.772 1723.69 614.501 1723.4 614.547 1723.02 614.751 1722.93 614.825" fill="#E7423F"/><path d="M1721.07 614.622C1721.6 614.225 1722.42 614.847 1722.63 615.064 1722.47 615.137 1722.27 615.305 1722.09 615.626 1722.05 615.121 1721.39 614.676 1721.07 614.622" fill="#E7423F"/><path d="M1720.42 615.954C1720.38 615.995 1720.85 615.354 1721.93 615.902 1721.77 616.156 1721.72 616.267 1721.64 616.549 1721.06 615.931 1720.42 615.954 1720.42 615.954" fill="#E7423F"/><path d="M1720.68 617.953C1720.68 617.953 1720.83 617.342 1721.51 617.118 1721.45 617.381 1721.46 617.555 1721.51 617.693 1721.17 617.658 1720.68 617.953 1720.68 617.953" fill="#E7423F"/><path d="M1711.9 590.248C1711.56 590.362 1711.33 590.208 1711.01 590.358 1710.77 590.467 1710.08 590.887 1709.86 591.982 1709.71 592.696 1709.34 593.897 1709.26 594.303 1709.15 594.848 1708.65 595.188 1708.45 595.106" stroke="#FFFFFF" stroke-width="0.267931" stroke-linecap="round" stroke-linejoin="round" fill="none"/><path d="M1718.1 607.563C1717.99 607.857 1717.92 608.023 1717.89 608.328 1717.87 608.548 1718.18 608.853 1718.79 609.366 1719.16 609.68 1719.83 610.308 1720.04 610.525 1720.5 611.024 1720.08 611.304 1719.99 611.523" stroke="#FFFFFF" stroke-width="0.224738" stroke-linecap="round" stroke-linejoin="round" fill="none"/><path d="M1702.38 599.162C1698.71 607.374 1702.69 617.141 1711.27 620.978 1714.83 622.571 1718.63 622.891 1722.11 622.133L1703.9 595.777 1702.38 599.162Z" fill="#E7423F"/><path d="M1743.67 590.208 1728.13 583.256 1720.5 579.845 1737.38 604.273Z" fill="#E7423F"/><path d="M1728.13 583.256 1743.67 590.208 1733.45 613.057C1729.78 621.269 1719.85 624.816 1711.27 620.978 1702.69 617.141 1698.71 607.374 1702.38 599.162L1712.6 576.313 1728.13 583.256Z" stroke="#000000" stroke-width="0.257133" fill="none"/></g></g></g></g></svg>